<mxfile host="app.diagrams.net" agent="Mozilla/5.0 (Windows NT 10.0; Win64; x64) AppleWebKit/537.36 (KHTML, like Gecko) Chrome/136.0.0.0 Safari/537.36" version="27.0.6">
  <diagram name="Page-1" id="J-tWmGRyIEwNhHBrYPYr">
    <mxGraphModel dx="3030" dy="2238" grid="1" gridSize="10" guides="1" tooltips="1" connect="1" arrows="1" fold="1" page="1" pageScale="1" pageWidth="850" pageHeight="1100" math="0" shadow="0">
      <root>
        <mxCell id="0" />
        <mxCell id="1" parent="0" />
        <mxCell id="kuua04k1buQ0zY0s9QjJ-7" value="" style="rounded=1;whiteSpace=wrap;html=1;" parent="1" vertex="1">
          <mxGeometry x="-150" y="111.75" width="1390.26" height="570" as="geometry" />
        </mxCell>
        <mxCell id="N6LJ-jFUnYFf_EcrKTQf-5" value="" style="rounded=1;whiteSpace=wrap;html=1;" vertex="1" parent="1">
          <mxGeometry x="622.5" y="218" width="565" height="344" as="geometry" />
        </mxCell>
        <mxCell id="kuua04k1buQ0zY0s9QjJ-1" value="" style="rounded=1;whiteSpace=wrap;html=1;" parent="1" vertex="1">
          <mxGeometry x="-550" y="111.75" width="370" height="520" as="geometry" />
        </mxCell>
        <mxCell id="kuua04k1buQ0zY0s9QjJ-14" value="" style="rounded=1;whiteSpace=wrap;html=1;" parent="1" vertex="1">
          <mxGeometry x="680" y="265" width="450" height="250" as="geometry" />
        </mxCell>
        <mxCell id="kuua04k1buQ0zY0s9QjJ-10" value="" style="rounded=1;whiteSpace=wrap;html=1;" parent="1" vertex="1">
          <mxGeometry x="-90" y="180" width="610" height="420" as="geometry" />
        </mxCell>
        <mxCell id="ZVIy68AMysFeJH6c3iR_-13" value="" style="rounded=1;whiteSpace=wrap;html=1;" parent="1" vertex="1">
          <mxGeometry x="1290" y="440" width="260" height="240" as="geometry" />
        </mxCell>
        <mxCell id="ZVIy68AMysFeJH6c3iR_-14" value="" style="shape=image;verticalLabelPosition=bottom;labelBackgroundColor=default;verticalAlign=top;aspect=fixed;imageAspect=0;image=data:image/png,UklGRjhJAABXRUJQVlA4WAoAAAAQAAAA8wEA8wEAQUxQSAMSAAABwMf/nyKp0b5VXS0za0SREDgsnoucu7u7u7u7u9/FEySChniCRV8Hp8ux5DZ3SBzCAk/Qe253dmZ6urrr+wf5i2mpOiMiJgBH/H/E/0f8/5/PvVp0WNeU45G1KIqimo/DXNWiKIpq0rlEj1kLAEDhlfesufMwXnPPG6AAIKhFjylcSHQoDpU47e+3r1277vb7mfEwzvjgbevWrr1909mQODSMoihyGWEURQDQM/ynwcHBwT9sYkaSWaIP6yQjyYxb/rB+cHDwj38bAIAoikIHEURRVBMQ+NNfhzb8lYaHmkQfmvEwzxJ9qOGhhsMbhjYOQkBEURQF7sBTSglA4Y6tw381JKkfO2VXp/qxSdIMD2+5CwoQSinPAUilBAIs37Xlvs2aua633Ld1500IIJTybJ5USskAl40+/FDMguw89PA/r0QglFLSykmlJEL8OHmwxYJtP9T5NUJIpaRlE0pJH5/hyK4mDQu4tWuEX4UvlRK2TCilPIX3cqRJw8I2bI7wg1CeUkrYMMDDq7kvZgmM9/HNULDgEk/igbE2S2N77ACfBmm3BE5nk6WzybMgrZWPaUxYUjucDd9GqeOYstSmnCRtU/0oGpZew2NqFmngqN6EZXnChAEbJDC5/yCpdTnSmmwMTLI9ApNru6i1ZmnWWnNfz2QIayMw+ZS+h5holmytOdJ/8mQIGyMwY8IwTZoYlu8kNfz70TMg7Ir0PZw0bZCJ1oal3GidcMO0U+D50pZI38NJM29nq5mxxGetFn838xR4vrQh0vcw5+Sb2WpmLPlZs8VbTz4Zni+th1SYdcYytpopK2DWbPHGM06CknZDBJj5lCvZaqasiGmzxWVPmYNA2AvhK/QuZKupWSHTZovL+6B8YSeErzDjpXP5T82Kqf/JBS+ZBeULCyF8PO4tl7DVYQVNWpz7lpnwhW0QAaa86zy2m5qVVDfbvOBdJyIQVkH46L+McTNhZU2aMa8YgC8sgo/jPvVLjiastMkof/3JifCFHRC1CL0L2IlZeeOYVwwgrAkLICIMfOfXHOuwAnfGeMF3jkEkKl+k6j/+DXXMihwnvODHfV6t4kUILmHailmZOy3N+SGiKheF/oVz2dGs1GmH8y4O/KiyRcB8Gs3KrQ2v8BBVtBrmLaLWrOA64aIFiKpYWMd8UrOia/Jy1MLKFXlYyFSzsuuUyyCjitWDpXckGSt9mt5+DepVKujDQlKz4mtyCfrCyhSGWMxMs/LrjNcgCCtSLxbd3coMLaDJ4ruXo7cK+QNYQGpDK2g0eRUGgsrjRZjLLDG0hCbJeBVCr+LUcfmecVrG5qNLUK80dVxEQwu5APUKU8clzGghDeehXlVkL37NjFYy4yXoldUkxHlMaSlTXoSwioT4CZu0mE3+EmHlCPAdJrSaCX+KsGIE+BY7tJwdfh9BpfDxNca0nh1+H0GFUPgaY1rQDr8NVRkUPseYVjTm16AqQg8+yyYtaYtfRG8VEPgoWymtadripyBLn8AH2choUbMGPwlR9vAeNmlZm/wIRMl7P5u0rk1+GCVeeHg/W7SwTX4MnihpQuIDHKOVHeOHIUUpExLvZYOWdowfhhQlTEh8kA1a2wY/AinKF/A+NmhxG/wISrj/MY7T6o7zk0HZEpjIBi3vGKdBlCspP83M9qT8gidLlRSfZUrrm/ILUpYoT3yBLVrgJr8qZWkKxTfZohVu8TsyKEkhvsE2LXGL3xVhKYrwLbZpjdv8AcISJPBtE9Mit/ldlF+hvmc6tMqx+bEqPXWM0jabNmolp47zE+tEfRFqpaaOX2a00OZ81EuMh4tNZixUZi6DV1o8XJRlhjY6M/PglZU+bKOhlTbcjd6S0osrU1rrdBF6S4mPBbTai+GXEB+LmBp7ZVIuhSof/RhmSoudcRP6S0cdS2i9r0OtZARYQgu+HEGpCLCUxoLxegRlogd3MLVfGf+AnhJRx1IaWnDDa1AvDSEWMqMVz3gNwpIQYj5TWvKUSxCWgwhLqW2Z5o2ISkGIq6hpzTWXIioBIS5lQouueRXC4gtwuW1bhqDwfMxnQque8Er4BRfiZ2zTsse8EGGhCQ8XMbFtmgugRIEJDxczoXVPOBeeKK4A32CLFr7NHyEoLCFwARMbl3AuhCiqCF9mTCsf8+uICkpAXkht5zQv9SAKSSC6mAktfcIFEUQR+fgYG7T2DX4afgEJ9F1Cbe805w5AFE+Ad7NNix/zowgLR2BgLrXN07xyAkTBCBy1mAmtfsJlx0AUi4c3cZSWf4zvhlcsPl7N2PbFfDP8QhE4/gZq26e5YjJkgQhMu4Ga1l9zxXSI4vDwIo7SAY7yZfAKQ2D6LUxdQMpVMyGKQuKZbNMJtvlCeAUhMOMupm4g5bpZEMUg8VTGdIRtPhOyEARm/ImZK8j45zkQRSBxNmM6w5hPhSwAgSkbTeYOMt4zFaIInsCYDjHmU4rhdHbcwlmQ+YcZj9C4hIwjJ0PkncRsdugUY54OL+cEJu/Sxi0YvWcqRK4JHLvfGDpGkx2YApFv05jQOXY4J++muIkZ+YZJrcy4B5N2piDXJzKhg0w4BSLHBpjSSWoehxyf4CoSTvwXk36mdJQpJ+TXcS5jUm5FNHSWKfv/lWS625iTUz4NHaZhlE+zM7qNk/OJjtPQzyOlXUdWyyPQddDPo6e4j2fmj0DiOkiqHBpzH23krvf81H3wJV7OSIzTgSYQuSLwhjEX0nwzRJ54GKUTHYfME4l9buRgvngYdSPjuSLxMe1G0k9D5IfCfjrSUXj54WG3K9kHmR8K+13JKLzc8PA97UqyH0DmhcJeGkfCA/DyYxed6R6onPDw89SdZOfBywcfO2icCfdA5cV2l7I7P3a4lD05obCMTvUaqDwIsI3GnRjugJ8PD7iVbfngY7tbGcmHANvcyo5cCHA7Hes6+HlwL41LMdyGIA/ucy3b4efBva5lG4KuC7Cehk7VcCOCbguxyb3c+58TfGx1L/fD77IQQ8zoWA03Iey29S5muPuGXMym/zFA4rj7Xcz2iRDdFGKQGZ1rxiGE3bXOxRj+sdsGXUzGoX/FWO9mNnbboJsZ6ioPT91J414Mdz8TXvdEWMuUDjbjIMLuCXEbMzezrpsirGXqZgaP+O+I/47474j/jvgvl0LcxszNrOumCGuZupnBblJ45T4a92K4/3XwugchBpm5l4xDCNFV693Mxm4bdDND/4qxzsUY/rHbBl1MxqHukpj1MI1rMdw5B7KbEGKImXvZhBBdttHFbEbQbUMuZhPC/5Sw3sUMd9+Qi9nUbULhPhq3YviQUKK7EGKTe7kXAf6LAQLcS+NSDLchwH9QWO9WyGH43YcA22jcieEO+MhBH9vdykg+BNjmVnb864aPW+hUV0HlAXzsoHEne6CQE9tdyu782OFS9uSFwkI61Kvh5QMUdrmTPVDIjb00ruQAvLzwcF5GR2ouzA8o7Hclo/CQmx72uJJ/QOaHwn5XMgovPyS+mrqR7FsQ+QEPo25kHBI5KrHPjRwUueJh1I2MI1cEPtBwIa0PQeQJJMZdSAKBXBXy7ZkDebdEzgqMuY82clcgcR9UuQO8xHUYvhJ57D78PFJt19Gp5RHoOujn0lM7TsOkT0cu+zROg1E+4XQad5HxHOR05DJS9jm5/rzCHGauIuXJyO1+pu5iQn5hKlM3oTkTOT7BVSSc+K8mmMjERSScApFnx1G7CM1JuSYwhYl76HAGBHJtmpuYk3cTk9S4BpPqE/MNAlPj1LgFk+rpEMh3idnsuIWYZ0Ai5wVm/H9mHMPZEHkHgdPZcQlG751RCE9g7BJing2JApg+khp3YNJdp0HkHyTOZuwOYj4VEgUocPIDWeYKsuzBMyCKABJPZewK2nwmJApR4OS7mbmBjH87FaIYIPFMtt1Amy+Eh4IUOGmQmQvI+JfTIIoCHl7EcRcwzpfBQ2EKzLqD2v5p/nYORHFA4sS7qG2f5u9mQKJIA7yKse2L+WaEKFQPb+OY7Rvj++AVi8TkFdR2T3P1VMhigcTk65javJQ3nwCJog3wbrZtXsyPIkThCky6mqm9S3ntCRDFAx8fY8PeNfhp+ChggaMXM7F1Ca85BqKIINB3FbWd01w8AIlijvBlxnYu5tcRoaAF6vOpbZzmoh4higoBvslxG9fkjxCgsIX0FzGxbwmXhVIUF4TA5dS2TXMphECRh/gZ27Yt5oUIUejCw0Imdk1zKTxRbBAKV1HbNM3lUAJFH+JSxjatw4UIUfw+rqa2Z5rXw0cZDHAttS3TXIEApTDCUpt2I6JygAg3UtuxlGsQoSyGuJmZDcu4CiHKY4Q7mdqvjH9AhBIZ4gZm9stwNcIygRAraGyX4RqEKJd1rKCxXLwddZTNOoaZ2SzDTaijdAa4mZZ7JfzygQA32a3V8FFGe3GtsVfmBvSinPZhG42dMtyNXpRUhauZGiuV8gZ4ZQUKy5naqJTXwUN57cFiWunlqKPM1rFQ26d0Ceoot3WMWifTRg0lV3gXM7VLKecpUXYgMJepTdJcgDIc4Txqe6R5McIyhBC/YtsWtXiBCFGOQ/ELtuxQi7/yApTlwPs5Wzaoyd8oH+U58H7CzP5k/LnvixIlfP9HJrM9GX/u+wJlWmAiG7ZnjNMgULLDr3Lc7ozzGxHKt/oqx23OOL+lUL6F8L7Mhr1p8GtKiPIFIbwvs2FrGvymJwTKuBDic2zYmQa/KIRAORcSn2PDxjT4FSEEyrqQ+Bwb9qXBL0JKlHcp8Tk2bEuDX4WUKPPSwxc5ntmUbJzfhCdR7gXwJbZTe5K2+DVAoPwPDHyFLVvS4jf6JkCgAgqJb7JlR1r8EaRARfTwfbZsSJs/hidQGT38kC370eYvoVAlffyEHdvR4S/go1r6+AU7diPhRfBRNQOcx8RmJLwIIapniPMY24sO5yJEJQ0xj9pOpFyMEFU1xFVMbUTGJQhRXUMsZGYfMl6DEFW2jqWttm2ImzegjmrrRbiRxi6sQeSh6no9uJFWcQV6PFTgGlbsim1BsvN21FCNVYAbmerqp1Ougq9QlYM+3EzqqqfJlegLUaF7sHJIp9UuzTbchh5U60hhFVNd3bTmHZARqnZYxwpSVzVNrkY9RAWv4ZY7qHUV0wnvWIUI1TyCWEmjq5c2XK0QoapHgb9kOTu6WqUdXrMs9CNU+AjRDcyStDqlScoVNUSo9jWvd/5Cproqac3FCwa8Gqq+iHD0ZQsZp1UobXPJ3OMRCVR/UYswcA07cfWJO7z+aEQ1ASso6pj8k8s5llSbZIxX/uQE1AWsoYxw7DXsNJPqkjRj3ng8IgmbKOqY/vUrGTd1NdHNmIu+Pgs9EpZR+JjziSvZ6lSRpMVFHz8ZvoB9FL7CaR9axlFdNfQor/ngGVC+gJUUvsLkW9hu6iqRNtu8dQqUL2AtRYgz3nQd2820KqTNNm9549kIBaym9HHmi25iu5lWgazZ5uoXnQ1fwnZKX+HMp69hq5mVvazZ5l1PPxvKl7Cg0lc460m/ZbuZlbms1eafnnQulC9hSaXv4fFnbGC73TLlzLTabd59xtnwfAmLKn0PZ52yiSZumfJlWrHh1lPPhudLWFbP93DqM2dtZ7tlSlarzd2zn3kqpO/Bwnq+EDhz9qPUWpcnrTUPzDkTQvge7K3ArBP+QWpdjrQmG1NnQcACT5sxNaHW5Udr8nEzpsEeH38ijda6zGitM04/DnZZHDubmdE6LSep1iblyccIWGdxVHQKE5bUhGeFRwvYadGPJ7NTPmI+Hf0SNtvDsxmXi5jPh4L1FirEG9kuB22+C5ESsOU+PsxGVmzZOD8BH7Y9wJd4cCwppmTsH/w2Alj6EOfxoC6a9CAvQwhrL5VSMsRVZs9eXRR6795sOUKhlJK27lCplECIVc3dj+5O8y37v0d3j9+FAEIpD/bfU0oJQGHj/p0jJp/Mzp17h6EAoZTy4Aw9pZQCBO4b2b5tR54Y7ti2/ZEHIACllPLgHpVSCgB6Htly77333rv5EZruMdyx+d577713846jAEAppeAw1aE4VOLMXX8ZHr5nwwjN4WS4a8M9w8N/2f1ESByqDoULjR6zFgCAwhtG/jR0GP9p5O1QABDUoscUcKyyFkVRVPNxmKtaFEVRTcLterXosK4pHPH/Ef8f8f//DgsAVlA4IA43AAAw1wCdASr0AfQBPkkkkEWioiGRqlTAKASEpu/DKUhDIWTv7B63BEm0aaQf/dvy98PCsfWv7Z+yH+E/Yv5vaw/SP6v/df8H/cf/V/jeXUsbzOvIf03/Rf3X9zv8T/////92v8d/xP8N7hfzh/2/7b/dfkA/hv8k/vv9t/yf+t/tv////n1B/8b/D+5L+0f7n/r/3j3A/zT+u/7r++fvt80X+1/2n+89y3+N/3H/Y/XL5Af6t/eP+N+e/xs+wr+8HsBfzn/Hf872cv+D/5P9F+/P0W/07/U/+r/Wfvz9B/85/uX/a/P3/y/QB/7vUA/6vqAf+X2P+qX+D/JLwB/uv91/Hrs2/Mn7J+1vJiei++v8b/Ce1f+J/6X+L8Tfjn/r/4D2Avxf+W/4X8yv8J8bL67kVQD+Z/0X/c+o19Z/qvQv+Q9QHvtPA+/Ff7X2A/0H/2/Zq/rP2l/MD21/n/+h/9/+n+A7+af2/0nf//7ff2w/9/uofrr/3RpOzPoYe3cEW5gHgItzAPARbmAeAi2oVKj8OfvM9gRpL0Vw/uWRn0MPbuCLcwA60kCAY7jf/dpUqDTEW6YvkBopvvwgc6BNgMaWHtVmtiwluCLcwDwEW5ezNy24RVviUeIJZGfiRIRTdOZWj/ETbzKn6Ye3cEW5evFMCxCSQWy7Iz6GHt2yXOfZdfQTEQ6yKBwRbmAeAGVUZ34Gvt2AeAi3MA8BFegtFp5/0Br2K18EW5gBtPjJEkjJ8tzAPARbmAd6B65FOfuBIlJ+vQw9u2KhWjTHZscg9u4ItzAPARbqWieWjIT2Y1yesNMmv3Kzc7JXZtDxFuYAy0UKwiWESw7wEe5ZGe/z0XHmmVQRbkpFi9GMW5gBz+r/F2ifws9zQh5rTW8UQX+mewPfn/rMjtqTqa/i6CWiu8i3MOi7T9M3bSbBAoT9kc2mHBFes/kJWk7M9/D9aEILWPqsZ9/+yALdETWhLIJrhUQZqxST44J1WfKsSskrVI45i1pZdgmHJZp4TCDvTHOcofkoweRddH8HgQcrXbSw877ZuEHefVCBxdLsSDkgAvgiwT5wiu0YyILzV8zk1jR/oRCImkYORny03RVNtPvc1ecwGJyICFCrdSWaANEZOicCWAHaoGxf+Ai+LlGluib4Xvc1AuB+P4cUDBWbf9JGex8cCwrcwA/G5tAw8Smwn0Av81OzOMQXuNu5WKDNkgGgLo+ZJVzKv8lno80T/NPArHSfF//xy3O1s6XZu2fS2D4Vy1HzdwFpufoA8c1kxIs5V/FSvPrDG+2sUs+t38cGWNLMnRyNUrIuk4eyJO3gIULjn2D2rjCdLG5c3EAPWJFC3xILQdSXPg8s2B3DVCTWVuK+/+QpWeIbu3a4R1hW5gCzgrQeF9C7m7Oq/Fa+jaVPB6Fyr/u+R1L65qmgBQ12hdVQV3tHqEz6GFadoi6s94e2mn7gZGfEFaRJ4higTta9ID2zHjVeJhUkbHR14uIHm4G85GLnf64///ZOt4OEHbS0BHt3AQ7Bo34vZhQNMTfefBFc7RhVqNZ0YDEZdaIDQf2nhc/VdgBu8f+4zXhbR70+J+hDIyv7v8bTAzttE18kQPbnyK5GyLJZyxe4zD4/oYo8i6GTnNFxaNds3x647gIHCghHFDy8Ont3D+fbKMzra+Z8IBBrXt9La9qUnD0A7NFYDILw1wMr0YZqJD03Vr6Dss9jrieUADJFD8k7zcUOHBin/l4CFP9u3GyF9zrKMF4rPnA5CDQNsnxARbqfZT/5KFm4sOj06Yu0DARHA+gSWJkzD25ybX8OKPFZ/giA9cRwFY1dm7gi3MA8BFtR5ZJLvKIC1XbuCK+qqNShAinjAPy9KtrppPTDBZyN7dAhvow5fmTwYDwQDQCbIiniYeTl5On0ehE4XqYqrO8u/mBEYy2HDvKbMGmA29F7yWrESTeonWUSXa6+fKWBFW5ZGfP1nPeSfkYG5s0oeVy2DrP6QnfNJNP1UnvX5nmNBgEnhRJZBBrfEpmhazotMe24tbRgeumxWH9c1Su+3yLsoQsQu+W7pkMx/0+LgllJ17cc1L5of3Qw9u4Ir7uFvWY/O8xOO21wP5qxBZi5Ku4VtWoUJZHmx8/csjPoYeR4qOt+U77a11+sOXkxz0MPbuCDUZ4mT7zyGyLbmAeAi3MA8xx73Pev9fDH877GBkJ2PsLBCyZoWhfDt2ALrowmy5gHgItzAPARrJCWWWAkGS1xBYk/Gq4osjoWw/qWFGKmacoFa/csjPoYe3cEW5gHgItzAPARbmAeAi3MA8BFuYB4CLcwDwEEAAD+7heAAB9Tgu0rKKdXRTnS87NlpchQEuY9AuuoCcOPkvams5kls98RscpBXjVXpR7G3rpjxaGxzQ86bRl9ZQDzhWg/IxGd4F9rfCQImZsqt8vPntOo6rOyxtQKvBARPnVgfBR5nIJj15WPCE98qp7HJ6Ks9n8ET6WDOpmnVZmUswmuMyO8bmJxVTUdSba6QwAbK7e2Fr82jTfGbnxpGeLKwHFJfcIkl7a/pP20gBlsYmWbvjCbqJL8E2OFQzGJFR4M1VN1hYkqOz5P5+1FmX/a0XPsz/VeOV8YGf5yISNfNgajodUkUbkLDL/K8vZRwnu7HYbYM4XwIMvdUnrlep+nQMR/4dgldGZxTQGcNz8mZc4oEaVecTi88NRvnS6bTCCHg/nn7wYCLCBe/iUDiBRPKw373jzVroRtPJp6oa6OVyKagYleQgj9th0P0/0bi1u4REybdPcmopfUYCeXKxC9fKeKmdrFsZg/A+92CXIy0UQcH9osqbF2WQCDvT/BVW+X+WwsHVo7jSJdHOP15tWGJRumRgCIenxALPx9UF7h0acQLIJH5Ezse/1vSrWOymZCSQWcyhQgQUBgCYtI2I4wqgFB/0UuXmqcx5OcwEhUftSHN8kD3A6taXJglCaQpr2wN2mA7ORvME0g/kWT+/IIV9lasBoQlo2WczFMP7SN0d0I9ZA1H3glG+akd0C9q8255yxkmfwPilYwVock4Lx2B3VK3bbOazg/Hsm5RXrZnhkgNGN5G18p2RA8pxm4wWqWHt5fgEAYvip367hcks/NjMFkdYLrii8LtSGSm6dtwiHP1QST4S2K39kN98Re2lPH6hwjFnq1XgC98vKgYUSdg28YClh60tM1SB9Ql+6MQwDRxyKKRL3StqlHemWIaapB6uzYhKh/IAABM3iGKGw7B+sX/XVQZNTLLFaniQQRN1dLzSnNyUJHI7yTCaQ5cFA1z0g5cbGL7tbaImryclJ3lYZsPxq7z7xC+bJ5SCCRWK9ETr0fM8O0dUAI3WfAUWfAylkEL+KwhRXSKIMYj8hLE/IB2snIt/3UTRuCR3kszNI+jDK67sFnVHj4neGwCUv7wm4euFxipE1CWdlDl1e5nRshBaMdBvosVK4WweNdYGTmA0B5QnIvG+vLa/Ko58T7AGqqExMTLX9bZnRgzfoM99rWAmflBuFBBbCawQ9ZeMI9yIiLRVZKnt0vVgVdgg6rLXcuGsefVH2XxX76ArD9F7HuR0Etrosciz+9/UwAAFl8GJHl026Uw6eg0/erAZV1ZliYuVjpusqwv8O+CixPpJOv8epSeXB0whfuoDlxo4HLOpV/BKcKheFlZBQePRyz+WYtQITpcYZu3zG3x//FAsjYpsDk+oreB8QK0G5t0bFPviMO3Ni+vAXannJG2T2l6ee7MKCB/dAIo0cVKK+7Nn4xDpiWAe+zKJy9OKx2lKxgyu7FTIVplhgqmnaQDj/2yOJIo8nh/GjdBzAkasrwADbf3+CX5LKzLapVdev2a7BkzU7nDx/GVFBPSLqZkgAAMmcbsB3RLyvFoxpxmf71e7H5zw3YQTcsu3N/ZrGWJTLivPEMgLaQmJkMegMcPNljMr8SGNea0xUs4ww1R6PhUfE98P9HIsa30cxPFvqQDCFlaK8chJstt43y7FcuiOeWUYpJsxFYrKAskbE6DzWW5alTrZeHdJy2uOrSTdmZLhmfV0uz3cIBuVQ40/Gs1iJxFjD/GPIsuaqbPi254CD9vCvoEGUlTfYz0e0Esm1vhxZ5XgJt5Eqk+4CtBAAA7I4TzRjk6gS92ddxI2MgrahlSWdKP0tQ9QbrhVbb4swDawMlkKC3kw2yRWSmQPpQ8lto6e+BNi9RyfD0/7iQIzfOsAfUw2DH4vIRWwj2xhKo1kkTrVcld6A7bjbkiYcXpchiMLnr1ZjDeQwwnOONye26v3xIWFjZXAAEGXJGFpmoHVJpUvdkXnUK9/XD+A+B1kj8cW3IyaRM4Md6Qe2IexoAAECW7CU71Bv8OXlZwjDE/q6Scx+HUq04TGTLnuMdjABE2+/3sLrszMhSXqcPF1jnU50AMM8Yu30fRwA6Z14tv9yLc6ragz3tmj/J/y7GefBAJEBSL1sgNyu882s7HMMorgLFowzstx+ABnFQLJTOyY51fEtSmHca/hPYbi5X8laiVkNJG5hVa1LNmXRDJ2nbmZhJGeauN9YOdNR6cGAFl+8cE9w6ZnCXQHcjRl8GJ5iQJErSAKAFZzd9MpWmY274VubTxNrCtpgpg3q+8EsPRg0AL2XnhjTrArut/eo8ST06OqQ3BljRZER/xSp2Xm6V22Roedf4k026yx7CsmxrhGxlky5UWuiy4uiW1MEu8hVPjGq4c8bbcho1v0Qbosb6qcOxml6ErGQxABC7Xp871G4H/HB0acstJnVrwjeS5tfiqivjMYPoOJCCWjoWEFW9Oky2ZGOG1+ED3CG35N64mhUa4xvCH8umkKPkQZl5slXol8nWb5ttU6ZaKQc4hOjYs73a9QmkJ2fDmKW7oOCWoQgLuOMTc4+mSx+ZpTafTHP8YuqzI+FrYJlwEhey8GOPiQIp8+2qW6G8iAYiChdYyA+pqz+TgMIZj+vd3JyFxK21xfsJXcapyoHj8ZI0IjmUOlkw4E8evzDXQuzrrZtvAZWflVYdnYfw6vtUdHJ/lGknVJ+jkGqEqDPtTWcO0jlL4LuSjUQWFkd75hAbQe8beZcdTn1ufqaySrMFY/5vSbGQFK2/KsNDCeLMzFzQZYHT42IetgvnfIuRZ6eKUXQrLkIv9JS2aaSmWwQXmEMw6nNV/ubknpWb2BGtdbE22cnbzgK1HfHrh0qlGxUBE9Iqj+8TCTz7JHR5bF28zOI+J5k/cxx+WyL0P/f008AeO2lb0YZK5RPFIfPJOvuWwPRjlOC8uADbqlKc1fry09Ng76ExzuaAJohrxDLC02F/bgnMp0ehLYw3xtEASQEjBV7MhsHDR8xVLTMQ5H6aLCqAF8r3Stt2VXF9NOezMEuBAtnv+HKLzDMpmqdBSQ/+y2LIFyRRM7FgDkvbA86Y3/uTLqgZGa8Tv3Yreq927yU8mKGyVe4sgMpuSLfWC/ZdeFadnjbJY0gvZAruk3VboBoNDTRhssRIrKl3MXMxN4TBT3mxXuOFqrAOXHVijQ1b8wNvtObRCNhmaqiWCT6PwK7BMzWuv4nZ0AQ9Y4BO95VbIl4BmjBcFM+NW75fA2G3HQJ98pmv1xIkAAntxJQl7rUOnqNkDI/oWq3KSLwhM5OEf+/YGRoU2LezlNE73glDs+pfRJohsHkZfsk7pimSELJEwZrciilI7SP2MbmCLqoizQvK8SHT4xq9vj9qFnqI+mr9CDuppf5baGLv/39fELJDVYj1DPFs4qyvDucnZxXw8idUDMUNNo6taYvjBpnjQ0QWbwt8lc1euooJzfstqWHiu44wNIZvyTigjnvkQA38DUmf1Z8DNW+J391/T1sx0uS1/9KJu8He8dHyYQoH+DsXfaVCjFVVMaHi/GM/moMHnh4Lx/ntp2Y/10g54rqFQAq1rbvuo7ceFyPy8rFDZEr/KltuzpTmB6up2zAYd0Xhtu2NFHbMTiLIhLQq0He5LkRzY9bACmSzjs7gEXYodyHivOo9GvtdCoVRA5IptzdRO0WDD74yL3/j77eDDFcySbvE5WlQ7FDm9jbesSqPkY5jjlZqw/wiYEYzPpJj3cXz5G2yikvwkNh79/QYHbxfrcdJcAAAWRAPTh6fLKWE6noUtq5klzPknyPDPFEuHEVySiKtpuN+/M6kJv7E+9P/Ba0jqK4fg3wjh5d/ufxQdzUp1dyW0ZclLPJjdYS+ZbOVB4PX5h4RHWxoaDJ3U0mVHL82wAD/Q6QdMtMC+SaSVl13fzdWA6k4nNhehe2JLYS3GQ6sXnp066z2vhgU6mxenIaNKltvUeFvE1WxOEblSYEI0defhhI65VvRa2ZFaqQ2R1JG/gCrQanUxQN4zPZzP2p4dMu0z++pUwA2exLQ5QEksN8YN8x6NpomZLc0+AXRxow3qWYmf9mCMGS7jtE+Uxb4mSjrrqnC9pCUx4/tD/ec3H6s3x6UlEmIt+I0XueZdORVH2ptSaOwzTBS9M89TP2EitT+lelsYnna0BnqUPpn8e0tb8ny/nf/fYYish+8xmdBVB+z8bfv19GNyEAf3Pta/w+pbAgQy+xQHi9ah/jp3fXV/Nqmvpg+4wCmg/z7IlQ5+hvqwYbrgQfikc0A3Lb40O4v/oA/x6rR7pJxQxQy9Tq6ZGoNkwM8lTTQ4bJ07R5Bgz7Q1zNAVUpV3PC6g/qCwuX2tZhAusae7NjPdrbuhUAAAy+jeJR6vc1PDBdEiCYJoqxjUQNKyHDKgqI15ebhcvvu0M2xpyohOzsQQl+a8qe3ZCB1AT2fwNJhqnFHQ1ZMD2WmDvPxSdjRyjaVknKMLtTVbSPCaXktL0zI6w6VRlTBHdOhohn9YMlWCjgM5x/N4oV2rlOph+zZSfjDTy3SZrkosgAKhoX65SBcg1dKY+Hn6lBYaPVdzpkJttloVi/Hgw5PtxwqT7qklQ/GzLlze4+5StwFF5qKz+UIAZaNd04Ta1mU00TkuiCeiQ7p0Y+9JtaSfJmkXHZjurwWux59jTa3nuCYs9uIARON5GgJ5psAG3nXvLm+IxGDX1zUFSV0Ew1l7D1LQT00RJQJ2WqKzPGhTeoI4RkDCtCD2WeOVIoth6W3RIdoyzqv+RNGocLMqizmu3GjBPZGrOdCdHjtHIbxDnd/7MJ9oUSyCMB1gLf9JbyP2qNMJtmG6ZWl+eNJnHdF7E/eUTx3//bJjwE79hSahtH5JWU3m1JJa2fzEWT67fc81K07jZnnlC8uUV1d0MDUmXLngM53sHwkZZnWjnRbJPuBr1GRDdew5tWl4RFTcfPp6eTiuHHtrBIcPJJNLpIzEbHHSuJwCgh/oFfZANCim56pDf9Oza6jz49QYHCaAHw7/1AvRy7mEID+f2sHVn5IzvSfQ7TA8v/LLj81zlbPPJrtR8aHzmISwOdhOHHA9MEfJuPgpY1/PNnC9omBB7ZGoYWPUzRRwyay/BIgHn20++2rqAUphgjPkkQwZuxxmS2vvNXW3105AjJCqeDyHM0gjyFw5MlbXPYdh2PnS5GmsHkk1272JIqrLHII0l2335br7ei3ta5x1e6eGnqHEFnHudN0D6f/eRDvubffK9M0n5eeJQo22Q4Ct/zzjoBCi9tMyOo4LwXqhstLo16MV97D1jD2gC+L+xvR3Bb0SeQ6H3/LjcYGaDd1zYWbz17zyAKxpduhZWY52RQJBL+Mzb692jspODAgy5xOGasJau0Ij4tdgdRi0CPQQTapNF4VnpQHGFiiJEZI/GoiX/h3PGs8kG7tNmEQLz7cgaMKy63YjiUFB04NIgTMaA+NRN5LqeBuQi6yu442tL6ph3PO5kZinM3dc7wrJazDfBR4cjv+6mE0GWZSM0NuJVN+VqhsQSmUH6PEGwAgEeexZQYxh41pxmC29sc93fkhf6k31WgkUUcwGMyFcwoMtzXA72YQ3/EW99D7hkqAorUkNAfCCjmzTlFIabyMXwm0kj7f+Ct1eQXjBPf5FBTCdUL+goFMSrzl1ZWX+dQERwVyv7nN4fwIELCprEI1WNVNEUHkl4qw1U4wILi/puylnpfiks/fMkUUlQtbHZ2vCSSXsOypIucxfcxwgJRmBXyDrZOMB0EEYMeFIAHSrgA/y9Cvf1w8LODBqnci+loLSqn2mEktaeJaIDWr5MZO+trLmZf/Fu2O6aZwQFvw4SiVg4ak6EvHd+ybxr+wzZLPtVR2zVOERnU2kctTA+fCCErjNnLT/GUu2hz+NMCjbypy04QNtHbOFutcECMd2oQ20+ATGrjh6SB/55zOTJ+I9Dw23l7jyF+hLhE8xLssozWlU3wS6MoPsOFfRHgxtBfv/vnyevZf9YNlB6/FoAAAlPuymyCHdCw2Q29DBqZm0ZRjdsmA3Ldxpg6OjH3kJNChMiavXIGp9y8vxuRszv2F59gFEKg6tQyQEdvcW3mk07RqaJe96sgiM6FSzx4LmIsnQcffMYBgVkV5kpJirsEh9AAKvKMebi9khTZ0CSVqYdE+F98+SbUlS88H4O7xcZ7qnvDLL7LADStyq4LHPK8jwDa388QK+xydiy5RvN+Eewbt9aKHTPacL5hEXJmmBdJT6KSHi7t3KnuIwaSoF8WmM6B/NpiwaF5+jVHuMi5Q5EbyK6Jo0UdKjKauyN9cmUZsXe57TKKROqFTWfMAP8JcSa0TYUMkEcb+LozX8EaIJk5DXfd7XbPYZj/iaOxHutRPU8pPhqEDG8ghVHCPEXn2FovaTYSGL/rtX+oAa+6J57MK44qPKzCiFFZ4rXzIadkSezeaqYkda7LxYh5ATM7PGPvPAUIzEi9gEw5PQXFiDVorYt/Afh5hkQaUwOI7jvBoGoJ+AUGq7huyc2syMnIyXlKy+mxFXG4fqg1Med7+oPX+T2ORVJS8w68dpo3MAj7h4BpEWc881cLbH3sQvqmnprOl5xJE+skuPO8308Wxn8uOAh5Z6TNAqWT/mK1J2xRA065LtM5AjCISDa/lcI3cdYdRpD8tYOmVPPcD0d1s8rmuq2QIbGu2fXNFJQSnC9ywV+ZVoTU6g/YMXr+WrI9QCh6wfp3htAfXwCGpbUEL9dViQl8NM0sXDJscAG6HI9HoaJFeaCfLod9a14q2H5iocOf+q8fyGFXIJRZ3M7SmZZLFBupjzL+r/KAFSg6d8TVPi4fZ8fVIhZE77DNiSPP8m5tN7vR8NXeXcZr8yUB7In90Sii9FPZAZxFlcC/d6iRkawgbmid5i9Fx6ARY1oFsb9cy5ysVTFsWMLCRe59y6tiTTisrbLdf/8/IacfoJQZyqvqZPPLgc6SzMZreZF08rbuMRgB7NtzfWiSo4UoqJyOYKkn/+vnxD3SlGgCShVSHYsQltWDpuyGcfHeDuXJP/1Kcx6L4SsgoOLM/ya0TzTu0TnVZZAXwWlRujkfm0x5MEtu3Ddg6UBuJ65Hy3RGctY+w0VdxJQ3niJAZk1fEdDyExzrEl/U+vB/LI2GVsnaIQrDLNaRe+sJltj6gHcK7+ZJp9f0x4MLwH9AqWNP0F2vLCEY2xOgt8uaC2j15DOexCv/SydyZg9IRwPaZVfRG5h2GddT6I+1nNS+YXUx8d4A6VA10RUeAV+F9OLh6PEb6ZQ54C5xSdNgMEjSUy4JbUVM97sDXGYyW4vTeMpUcV/Vks2hihHiScdjw3QurBy0qZGr83dd023QgImiu/aXGYjlwtIMfYiHN75WeM1l9w4oH+zHGUD9pz7NMi6dbaPkIyMV4L/0DVZnQNVlc+h9gL4rS15n0tB05EKXsW/6hKidXst70JmeMwTo+Uf3HH39sBP/V4tZ3ANNOj8cy8Vd1vL9NmPm/qV+lWNAWfCgTUWZmsdOSru1zMfHVYwDreRRBzdwC/JsUI12Q7tbt32Asya8rDuo2ZIiVA7MowDhFSSgG6JtKBIZ117HBYL6opMsFwV6FbPRUlP4TRk0gqR7FPrtE0/lqIfCDOsTc1F1i3k2bfnGjOiU96a9RL70pV3zlCdQF4gV2nSN/Kd6e3aIm7nia/isXgxkA1txY5C9vBN9n9RuoMiLSMSe2N81cINzzVpx1e4WQ6K8lBU+bmH1604OZ0F3JrBcYOaLANMjjlkA3wdZkXc+bJv44arKKBvd8YHzsnD7HeBZk0JWUN+bI+FOfFLLJanJLSF89iXTy+InllYpvDbXj5aGfOjKy8WIeQEzNgGk0yhWCPyuBATXLyRS7U1Y9iROykmVQy5qz2qoVQzgtWbgJapLhetCpodsqhi4UAMDHxaCBRcu2H9FYGpQkpr7qSu/EVog3QkHERbWkG5pH/7AqZPfd7X6bGBU++pX61F/zKC3RMSeLWojZU+eg9tz/MSfomieUG7B2igHAABhfrUp40maF9EOf/mmTSLxMceDmLEGefwPFD8uGn24MkvaO2K+edHGa00DgujBHbba6MsdbKdOBX4Jh8HF3ljXrewqmpJnHdGD1ZftZKfRmYIjHWkYtXP7RIb14Nosr3SAFiT1xmMJAE8Vi6A7AkzkHcKlfqTZYWoFsbikMrpUdo6sRikIXuuw8ergjC11B5y+3K8TjS8buxUqwFm3HsK3fId7mdGS5GFfdurH7Egc0gwdAIPQDlGufdfTT5dR2d2bhHW7ipe3LTcEbsP3NHtZ75PRjOMvldVXzRoUgj/5dxhDVX3alA2macDIdrbPv6mg6f9LDTJsK80Z4FlqcPQmwNyDlbsgCf+Eejq+ij20+6QXtgqQ+NSkK3yxwMp4PIczZRvEdYwlzfN4T3tOWggIOVciuwUoUrpe9GcmyK2pA5fu2xzY+blEOcuzY7UvBbcYT4Et9siq7ugAFlOOSbCZ11tKT1kAEecPSp9E2W6xr4urSP+jQ5rzv+Wvc9ZMZcuytlSp+G3VSdRhZNTl3/s1t/RrzXSDkoO75EFKPXJYHjMPpka51df5xJ5hyLGYM39JqSKMdsX1K71h33zWDZPJEXphKtPfeOQWk/lcm8bmpaETqAFvvuAOqUH/t8iQdVM/GViIDcIKTpJMOqU983k35KMHiY0Bjk0URFyuPpkF73bo3pfd4BroEmEMQnmvz7huiwKQA/0bSUJwagMk+0moZIcedrxG9SzS/1M3tVDwGVaJV4UYdle37REh2eqaMKjDY1ZSmOnXsMmIep8b3pthzDMNWNEH7BK8lf941neRtuboMAVgtP1XUV3ifPymfvM2VPRux1Mt1MqwNri9r5rEXUNyOlSLKGjSKUVn6q6pT8n4IcHirARtcNaaMogF104Yy4BSHtuVWxHGzzCktn9PD1AO4CZ0i14gbsCAaUgJsKTwxZ58CepOuSh5Nt6nBSL4bl1n8ypgPJUTVx44Sq+geghB50FX0el8KKVJIE9yyAgtkzpJDj04mpt6BcCBYWq9MIhydgYBbGPz+1PQ2WOnrX03NZc/3Cf3yDGEKMSVGpVuzStqCq7kQb3DZkrASLbB1IKrfm+NtPNIN61lnrK7w6JJZbY/Jg20QanKGgTtkrEMEHOaXB3r2EYu54/mumKUy1uZWTKI6EAXsVewbzEijKXWImC8tcxj9UmH6KTXSNvmw/JQqfRhUAwpLd8TmNgHUmgqXnQ+jT1fz1glmlVzuMA/e6Ci8/r3y5Ipa5dcfkfofNAh2D07JEveW5fyEye/8bpTejQig94Ypb0U5QDKKtMrHg+B+HKy63l+BWRYKY2labN6PyT4Af1SwJx9xdy2lIjEcihXMUFwfQTPQNIr6DoQgUcgJdTkSullI/l5sos5UOqQuLr/PAGatejcXYzz/ULWWR6reQ/O+mfx48NJBtbK+WCK7wIInvHa5Ea+w6MtFloEfCMVntPZXbI0EpjCgx9YHCqo2otRhFg3VmZxaaLzp36dOZET05zSCiAQ8MnBrEAj35XbjyGM6s9M7zx6pPEmKxoUpvVi51cuLVkPM0q7bc6xo6wwyBFISVqOYeUyGVaoeUTQL4sWBdXeMY12creLeKbE4UqTxJWp8GCezQgloHfuBpzLUBTMihJ1bA6JE2rI6YfgD7Dp3eXCW4YFn/Nv2usx8PiAV17LDnrTI59TQzqMY2HbcrzQDTSl+FyMwaUtuFPW+230oBHnXvC+xZzpjA5lWoAa4ugFUmej2bx5f9h92tXb7uI6L/eKusVdbyjMgm+5UJz0IxE56gm6nzPfYIN9T1M8TkLgMw8eRBXoR0q8VPz5xMEtaRqfyN4JvGoyOs8IUwSu4f/ogdVo6AB+LntTojATMDf5HAPSa+qRcLrzwhaMeflsEMT38rRjlN3CuAgdefwi9HfL+ZRsThIXJc0v5yC5w+Vmcq+OH/lpBvZQRl8GmOyFmCjV6ebLcm9yeGl6bRVDeBTOdSlz6E3rXfgKHkyicf9flXz+OPYPxHRpxiwuXHbLtdAVbOYRS6Jbbblxf9mY9lDx7EaqgpSnMlUS4XsxQpIUFlNSeEcst0s0vc0LJARbeHf29UqLo25foMlhy/+o7U8fRQQjHKgqkedxEPSTc8sfw1R+17nTuOczvvzFS+6gsqMMVZI1llObRH3NcwPoqCGGGGosWVBxDAvMyqXWqTgKl28/VxGsK9K0IXt7ekv+SlTK6ICE/TGy61ctmGRmPRtybee6M3ULwLJ53q3+JaITQ+D4CaW9Q9sobm4xy6tBGy0XHjfiCey4nX3E12HrhimgvwYAY9/fJrRtIfz9/+Fms8lyb32ExBtDx1QWlASthgx/voM755J207bAel396MgkNfolj2BT9O8XV35PcZXhcBVR0o7AiJt96RC1V10ancZnD/WUo8/gc1X7LbP29fGvK3ydT1ENlqGKlpqYAKdqGR8nsBoomdDGrTbNPp7mSh8UzSl+xejr2LkZUV8MJJqxmc3aowf/GhmvcXI6CCdV6zGHXEY21XXmJ/wjlDg0i4wKjR9D66iISB7NQ48BusEoGQCsd6otNmxBs8gRrwjmopt1gcnjT3joHYCpFtKMqqpW5Zg+ABLTO//E9TZa50ugwr6vt3dEyyAzGpjPoCoVIbqD+H/n5WwlxY6RqFHoqtJwpYrVpOwUJk1oM8LYeSksIh01aj1Ukd2bf+4ML8rYhhQHtVmqGDzWkXEDTorbPwkSX6M3ipmBO9nV6GdHE+E45RQU8vyZ/ozUw0f9IQg6DXsDNdBo7KHPLfek7yspERDjLxnvGwR4X9xCvTAU+f1Olm2ShswVyS8BvAVl0b/3g5PXsFSLqc1mMJToBrkTB+STU8N1k4mJxQu7GFz1yIr8befiu1kWrpzKGQFwC6ViRLRg7YxR37nPay6SOjJe7nQlrSLkQ1Tigs/uxOYSZ8ro+SmtlIIo8SPkO0YT4yCzkxEGnahseLJt4SPTAwvrEASSDNYYGKD1w17xiCPui/auCnqoDj0kPYXwQ2xB5m7HT6KPknPOME+u8e99VwwCoPfw28Ohdbpc+PVAWsDyohtid6XVLsQKNkhIeu168zS+WVUeEICYk5cdcdvCqLAg2O+DHVMKi3k0ynzOk16u+wdD5CXepBE7F1it/vSjsaW/iQTjZOZi5lwTANibVBTt5EuPFlF0oAj324iLrgP2ptTrkh4KW5AhSv+RLE8ZVgroByhEOircd9JFekZTRjwkqRL//PtDHTlsPSihsAzKQI8EKo4aKBT1hwMJq0vLomRKem1SRDZ05I9fRB3Ws77LtJ9Ln4Yn8of8bNoacUYlJ+tGp538QIANiei9PbmZsQmN2Q6yaHujfHSQcowf/Cv4nflRi9ATJ8O8StzI4f9AESzaugIxqct+JsReUehypUqwJwT9sFdjBO8B1yopgWBrfwfjPKW9rCyQZulzBerqRaTcQ7vopxkuVKiHZ4v8Lhd9kMWWmldKR1QzfOyAt653qQH5V8Zl1AguHZdoOJv6yRobY9WRTyYlXtBJP204PfcDDUbP3yf58xRtDJ2ibnUYTqKE3R59xVP1A1cORglyiTbej9PhOG2QB0AkaPgBjQRFPhjN7NueNj6gtVRcLYtdjywqzZg8AMineJzOqkr1ktqRg0n0pW42ICFg/5ihYHakwcnKPILRP4/gTrnKxdUT39Cl41OJGJFAC2a1sJXXKjbRDhURXi5yyizVYPG0vlcp1ou2AVaRfUiOY/21f+Kh4XE4JHMscTuwWl4ES63gYL7a8IERdXAKiG7Ut8Lcaauw1+dxEGHvnwQfK5Co1qEGADF0gyX+hqd2G7xO1cYHiR8yfvSNUaeQ1IQBVbtm5XEYcNgPh2aXDUJvNqs6uuWIo5zFkmKtbwiNUi7yf6oK+luRwQ3JQ6p46JJYvXZTFohcYDHPIyU1INlNaMbillGkH5PD9iKQZBkv2mLkTCZ2FKc5p+dCasxrVcAqKGl9u3iPSg94AB4nGNIJxl/7Q/UN7v7O4+dJnoZfi1pOZ+rxVna5V4Kr6ntVBAX8AMXgxoF80DN0uuWAQW5y3E5DK0XhFDKe8cSrohTVncjQY0bJ8kWc5aK/1mpl4Qgbx2cQYiZRu2BliSzQKNu/P2hJt2oP+egEaYUXca2AOcWeUrIEAc0jdqCptiZse5gMeNVEy1DlX4tDkX+0welXRChWBZWIAArVZTvB+1RBBzhwnWp9N7Q7psi0PM8S1NFjgm+p96phMDi+ecAw0li8F8wbCkyBD3aTJLe2pZ0M5mGQZfiD1s3zCvk84ZIRxNT81l3r+QM0cQ9qExqkEAfvXTEnYTUDSq2xEVD3BNTIRY7W/LcDbIAm3Q4i/GAMujTkKS3QaNJocWBJZT+WIHm6NmvNdSPIIXqT+UzAHnomjOR82fYYzyTjSKjODA2kisZ05IuJzKjg6101wbxmJikQv+1KIsLAtrxV6jNfE0ACs5k85EkThwkndT9/j/1+DdqZVyKqm3fX5XiDSTwStQ5lmVAQt7lpSdX4jBiWuo3znkUulfhDxJcWaJKtqf1VhYydYOfOq7YsQZ0RdaZBbm09usfu/I7znI3YH8Ia3E05FFUDGEaFKmEeLw3asVFaKbdqOQqv3u2ietU5JPeFxl9g2VzM67VbzWqj1hP7/vjotcV0QVX8Y3dbhzunQbiCFuqfgdh3FsAPr3u/42ORX/WNrbOblHZ1IsvPeowIf4h+IqyXvsEMk595SB+LNjwyX4Rfc2hbRY5+3dxV9pl2tmQI2N/TF2W96iMqc91qkM85bxW10LrJE7nv8k3Ry6NxsWvbPkVvp9LxzyR9VBZDs7IgqD3cmBY9NHQow9mwjO4u22gFLFE9K2SnfAcomMzqBBmvoMamGYPWnX/O9XFcRfQ3kMl8O8F6P7gF+uYwIrLW57bucN00D2HkuKiCMjTczb6hTePzlrBhBSHYieGDXHV7hmDMDt/SuI81sqAufDJfRbPo2+gLoQU80JXjmhaDUtQpx+6GrnzR+k8JP5GftMJRdmJ9AUiXWHHhOJ5fAQfdaa5wpyaH6VDbDfBYDcLnHGg/x8vdftOaj65hMHvGSeSXib9ADyBrEjhgGswmUxlLvljWDrIg9aJE0nDJNhLLXogWi3sJyt2NDr8kXNr1tWCyEaO8pF6E27RqFlkKfAtu15Rxf4523IgTkKCu/M2HdDUW4rJhToNjO3sm+Yuoa1rlxUOQP8mwTdo5Puytxr5QYkeHLjvfCNuxyZ9rPgFhnDG8eMi+/EAuJx8WgtGsleJNC83oFGy/mhnAoH7wThokNVpiT2P4M8qFK/NH3uFcrpvt34oE5BgHVETSYpoQT7Sxeu+10AyKeWGiWpJqk3CdbdYg3KHbuRvRnk8H0L83ATFtvowalaNG4PULfb5VnVCPPlqRqZcVqfXuKrJk5nOS9H97oEPZ3Uff0TYnihauch9QU36W9dSbofGynZkMmqAdXG8JP0W5oE3GjZod5DNkSgYujvqPFozYpLqoScTNkVKtb8MoC+uQXF2MUrWPe0KUoDmS7KnSzIE92TovGN18ZAaHlHB8dCR/q3xJtT+4VDDqyngZlBZ/jz2RcnQQrUhSP4ml1jG0zTZ1WbKUzqSnLQRVvtMXImXAcxvz6YsqHxV7h3W0v4dsbUQ8maUch8RDuT1cjHwytWd7/78Hf27UU8HjFZwb9kCIxzsAyKjLTlK1ovETJznToP+occ2lTFbABPxb/3jjVjnbveRS/di8jxnaq+Nk043TqzEHE/i0VZTkuNEZd0vqgi/QJT1lqVe/QZHAxGplasljg9VFWN1KJPYeEKYvRNEurHDVaIF1doAhzRYfDdUwnxVQYGPSk9cdiliFnN5qmhWPRVJtUktMl4wlgck30u00StlyhUhjsqLM2o6DhGfNyigoppII8PEj/q8mibXGnjNipSqS2aN+U65RUBnLfBr2LD2t4z0WEAEoWF3bjIlYdWeMYYQQsw8yWKt/orJVw3ecdG8XQ4Zed6hf5gVH4/gUoklqIHJpnNaPdJlyKZea0gqxdPTuycSpCwVGIEmeWIRvLmx+ZGYiSdACSOXPjgSv+bpvKVHbjNvoP6Ap6p80B5VJphsl2rp22jqu0j6dY+wbPDhZ2YegorbxXOrbs1Dbj/PL8e4VYqCnxXdsW17HxsW02AHp5Tzq13KI6KfEk/ZcZ2ioSEMtcW2tpy4uzZ37v8h4GXVRMLy6VG+62je3UjvOi4rzkIVlM4DZVlC8tt2/vJ7vRzARDGi8M2uW7/aFeWPPYPEMTsgmAxFhNYUuBDITlQfJcYLTvgWxiXUu2wOYkPIuhyVblcUBLXEdYd7qkVJW+5/mb/8P7x+zpjNnZWAYJY/4UN95ARgqDZcVRRSq9kvsCWJx9RyyGUr2fAcrVK0fLun/AuMdUkBlfh/akLhMEYZE/6pzpERlZss4J0qR8Bp0Ty/wJgGrqnZ0aNoWrMfhq+24TUD5PifIGqPUKZI9UpFtcYCt7DoggK9qeXYwqWOesVdLm8yaT5roLUz68kilveqor1Hsym7TxFv8k1vhWIpSbTNKEIL3XqYZ5jrfFbA6VtPn1XH86zzwrrB8kOznaDWsrxj8aQxI/uxbLfAerdZLG6/eIRWlryUZTRpxrxVVIzIZwK5pqXbfnjLfjMt3iq2+sGSCyKeQf8p/gxdJn/wNViKy6Vfwjb6lryM999Lzn9+/slpcUvcx2K7iX0mYv0I3RRjpVubcy/V2f5VRe5QRMFOtKd0u0z4LyfidYMOztPlNnH/Gi8aF5KC5UxlYHDaB7E+WFKKtio4YpEid072mZleK+ayEGcdmPigws4eiWI4PXcsDJWaBw2t2Hwd44y1yelMQ0K7ErxG9pH/MCBCt0AP+4lQRLTZdrkgCCAev2HCILOSkFPngBSnhKVniCuo8ZqybHmiYo3RF3wXGiCFHl5OZ44jn+6MrNvzTW+jK7UWfByd6CZet0SEkp2umlDJT2f1pWk9lW1J13PP9oQLU7yKPOnRAjB/OqAVflADwHglZCoCHEQ7IiXUlL6H+rfZNycBtVU1ymlu3zQCk1dfm2dv2tD4xqZX7VAgAFvfsFxiSuXxxdlA+lUia3jxg0QOTG6PEjdSD+7KRViw77SIt7OWYJGQtIftbNwVhSi0bI4uFrAFb4AAAAAAWjr2LiAZUW9CCmpJMt+LaGBKGNkrgbc5EFJdlG2xwt7BVi9155cLKJy8j49fLGg7u8KF9/rR18Pvm86Q4q6XeLIsoCSF/wLLEJeKDmWSBJ6RarO9rmm8gfj9uKusQVyCs1pMi9Giq2yJl+gjdxS8AGLNf002iw2ZrN8+qs9dp0ec0l2lhG44kXAFppPBL6AWFt0r1gbZVc3q5bXp2NRVMFMEMM+Gya2a46QJcJ308QlqwgEI8xY1iXzzb1TGCmBqJQJvQcgz7gyd8b54gt297PsOEhYwl5Bzn/EOV5dPeyUULnaDmde5ALmC9rIAVUlw4EZyhtz1QGifE+xM2o7b4aWD3rMlaqe4pi1i/5AMWJSTLHOtBlk1g0sqbPF8gDguslhwubd7wUdaiQ+LHKLvl3boNpUZPTXV3AufVvtqCLPZjvJVqPLqeCXFmO5uOAfpzT9RerOok2cZbO6VkaUoMtkEx+G6N4Hf7OzRMIHnCuWP7Si9wZ/QAAAmBlJPdhUDX5YWbAkFxTuPTRN7KAz9MrzUnm/SzoK6KeCd8D5fFoAsKISSj4WlAZh0TTfuZ9nS3ysgJJWVVsuXkuXfvtXGap7p6QsamWWdj71J0H3ObOv5zcOhiO+Q0YC8wsXlE6flo9u85OhHOLs1KCF4yHZzgk9tvEy9/I4XFTiIwTs1b6W5L2C4qhCD9b3uFahqEUlVYQrTjVfY+8Z7BA9B+xP9q3eXHITTyzadKsjv7smlKbjsHlWhHjl7BOBp5B9NLZBG2QPgEMhoH1l4feDu7iziq1JbMqz3r+eXq5/e4Mi83ojcUJHCM2ziHwk2FE8G4EtTpNE3MThaaX14q2J4olnCyHCz/VqDnu5922cMBfEgg+OHIA/yFRm3t0djtm/d4cRTJwCz4OFgW2vETh03A0JxLDFZ6oNM5ictJx3JZLjiGtCaItV2nUDwmZuzLkJE43bGcrin1aKQiUxahNwkm22BDYEAAAAKNFigzFKH/8AHGxEbziLjKJcbgq0PdeF43VOPMQjFi3Hv4qpzd55fRyrbB9kM2yraVe+jYmjT2K9m4QP0XfAkkaSnG0IJiMrr6RAvnomSJjj88U2ruEC33Dc+niNX7y3TaithJep7uagjiYV5DQBxyXPdvZk7TliB+dCr1Ixt3KRgNRbm93a9wqFkvbwZ+Rtj0xPDUrT/qqd80ya7xYQ9H3boWMr8qau9RwR4nlOqxJ1oSYnGdFgPoBDxNezILQn+0mOICLGG0bFmtszTgPaD4Uoz7knzaVhBPzp1OjKDjdYp1iY46cyfI4YZ2E/XSgVDyJp+AAAAAAAAAAAAA=;" parent="1" vertex="1">
          <mxGeometry x="1345" y="500" width="150" height="150" as="geometry" />
        </mxCell>
        <mxCell id="ZVIy68AMysFeJH6c3iR_-15" value="Banco de dados Oracle" style="text;html=1;align=center;verticalAlign=middle;whiteSpace=wrap;rounded=0;fontSize=17;" parent="1" vertex="1">
          <mxGeometry x="1336" y="456.5" width="185" height="30" as="geometry" />
        </mxCell>
        <mxCell id="ZVIy68AMysFeJH6c3iR_-17" value="" style="shape=image;verticalLabelPosition=bottom;labelBackgroundColor=default;verticalAlign=top;aspect=fixed;imageAspect=0;image=data:image/png,UklGRgovAABXRUJQVlA4WAoAAAAYAAAA8wEAGAEAQUxQSMciAAABHLJJm+T/s0PXzhExATxolz9s2143jbbvutZScy+4V8BUm17TK53Qe01jhhJa+kASSGjpiUlgCD1DCemhDgnpzQQIvRgwvRo3wLYsyZLW+cctydKyvCy97/t9ExETAEe27UaKh/Hvfdz+k54YviK8N08fDzuS1IFWEBFJ//P///z//zpk2RgaGZuQnN4kq2FyUlxUWIiOg1esj0jMum/4lHmrtvy6+8Cx/IKLF86ePHF4z+/frXvr2fE9clKjjFJwSY7NGfjs+t+OXy63w8vOqsLTf215bXynVCMHg1gX3/Wp/+wptEKVjpKT38zt1dDEQR0pquP41QduOqFqperM9uceStEHaTjmvjm/FjtQQ4e56MLJfT9+/Z8VHy1dumz52s++zTt67urtak9cVh5dMThdF3Th0I6z/rgFj23FR3/46LkxD7fJTI4JN8pMoqQPjUpIb3b34Clvbtl7ucrpDoD15LKe8VIwRZc1eUeRE+6ri/b8Z2q/9omhMvmQjdEtuj363vcXLG4AVO57o2soB0lC7ni3wA63StnfK8a1i9EzqVMObdJnwfdX7a4ApfjrQQ04+MERPTYVw63j+q5Zd8bJpHIObzl+3WmrCwBVf0xKkYIbHD3y29tw7bzy1ZNtw5lqJRsaDlh6zOoCqD40t4kUvODIYbvMcF35+/OtTEy1mHVpw7+4pgiAM/+FhlKQIqzHN2a4dF5Y1zeWqdZzSLtXD1oEwHF0ciIHIXTtN9yCy+rDs5sbmfyjnDjq23IBsOaNjuAgA6fOvqhAtB+cliaTH+XIvl/eFoDKjR3loELIwD/sEO17JqdJ5Gc5rM+mmwJwYU4yBw04a9ltiM7jM1KY/HFon10WAY6fu+mDBMY++5wQC99tIpGf5gaPHnBAvDGrAQcBOPmdEojmT+80kB/njLmXBdh2dpUDflL7XQ4AUE48Hk5+XnfHNivEc4+bAnwhY09CLF/RQiK/z7EzChQAuPVGEgfyoueUA4CSPyaU6kSp7ZZqAHDsyOaAHaeutQJA9detJaojOe6VYgBQ9t0rBei49fcOACh+KZ6p7jT0PaAAwPkx+oCcdMc+BQDyBxmoTuXszXYAKJloDMBJD+cDgPP3Lkx1LCfkVgHAzedDAm5S9wIAsH3ciKnujXimGAAqFoQH2KTe5wDAsiSWqS7Wj7gMAFVzQgNq0sNnAaD8tUiqo+UBZwHAPCcsgMb3nwKA2zNCqM6W7zsKAOZZxoAZdzoCABUvmKgO53tOAkDZBF2AjFvsBoBbz4ZQnS49cAwACkfIgbHEbxQA5ueMVMfzvacA4NJDHAgLX2IHYH0jjOp8qc81ANjdlANf+heqANiXRJEG1I0rAaBsTgh4cfdCAMrmBNKEhmfNAKrfNAW6mu4BgH3ZrA0o7AMHgFvDpMBW1AYFwMX7mLRi0g4AyG/NgSx5mgVA+WMyace2JwAon0cHsLjtWQCOZaGkIaVhJQAsM3WBq8gvAeDPdNKUhkUOAJc6BKykf1YBKOrB2oJSfwegbAgPVOWcBFD9ioE0Jne7DsA8XgpM6RcrAPKSSXPq59oBHGwYkOK7rgO4OYC1B6XsAeCYJweiIr4EoCw1kQblkZUAzuUEoHhQBYAz2aRJw78AoLyvDzzFfA/A/qKsTeiu6wCudg448QgLgCMZpFEN7ysAVhgDTeGbAVTPlLQKtbkM4HrnABP3vA1gXwppVsMHAJT35cCSaR0A+zRJu1Cn6wBONgwstb8G4FgGaVjjWgD2yRxIkl5XACyQtAzdXwbg99hAUsoRAEVdSNOGbwNQ0SuQ1NcM4IsQbcOP2gH8Wx840i0HYBnO2oaanAFQ0ChwlJ4P4GgqaVz9CgC2wQEjHmIF8K6sdegRM4CPdIEi3QoAFT1I8yYfBXAsJVCUeAjAoUTtI/8bQGX3QNGDFQCWydqHBlkAZQEHhvgVBXA8Thq48VkA34UHhkxbANxop4VMWwFcahIYSi8A8GeMFuIXAFgHBIY6lgFYKWshGmADMJsDQqOqAccE0sStCwF8YwwE8RsAyu/RRjF7AeyN9oR1pvDoxIbZbTt27NixTfOM+Kgwo8yBEMMXAAoytZHhSwAXGhKRZIzOaNtv4isrdvy25+jZa8VlZWVlRVcKDu/5Zeuyf03o3SotwsABjbgDAH4L10b8MoCbd8a1Gv7yN3vOFVsUeFmpulHw5+cvDGwZLQUsMi8A+I9OG9E4J+D49e/rdqjSdvXP5U+0i5ICEp3LAMxijdTdDLXbb/zxer/GBg449LcBypOkkVtc80yxFl08uXvrJ2uWvP/ee++9l7tkzSdb/zp5qcTmiWg9s35kpq7+x5IhNCI6Nj4+NiosZCIAa3+tlHbGlWIp3Lvl9Qn92zVKjjHpZCaXLOlMMclZHQdOfG/7wWKbOwC2U8t6xXK9TQpN6dxnxttrN/+Ut2//kSP79/z+41EAt+7USnGHAHvx3jWTe7aKNUpMXmfZFN+238wNB286XAGoyJvTxlgP46ic0W/sOl5mVVDzwmytFPrF0bUTOsTqmVTJhoSuT31+xuoKcF5d9UBY/cqQ2fOt367b4e2LDbUSZyXrSN1szBy09FC5CwA3v+4bzfUlOWXIxwVm+PJculaqpbqEHu8ft7kAKnYNi+L6kKnD/CMWeFx988rpA79u/3Ld+q//+8ehs1fL7SeT6zVEJKeP3VziAjBv7hla3+GYgZ8WKnCr3Dq19YNnhnZtktIgwmSQZWNIZFxas3tHjgqt7xBx2N1vn7ALwK11XfX1GY4c+kMl3FoKvphyT2oIU71dznzmsF0Arr6ewfUW08ObK+Hamr98QKaRqZ4vpU8/4hDg2DPQVD+R268ug0vnxf8MT9dRQFDKfP6QA+KtFS25/sFxL1yAS/uxudkGChxKmQuvCVCODjPVN3Sdt9sgVh96OkOmwKK+62dmiLfeSuJ6RdTMixCdx6alSxR4jBx10AkA9h/vkOsPnLHGCrHo3SyJApLc+MNyiOfHGesL0p0/OQHAtuNBIwUsQ8ccVgDg5isx9QN5wFmIV1+IYQpgctONVgCwrU+vD+jHXAMAZfeDOgpwRr9UAgDOHU1Y85meLgEAy+pGTAFPQ/98AFB+78IazzD5NgDcnBVJgVCp0y9OADh2N2s6w5OlAHB9gpECo9xwUzUAHLpb0nDyuBIAuDBARwHTuA+tAJB/n6TZ+N7zAHC5n0wB1Kg3zABwvBNrNG6xDwCuDpUpoBr+ehUA/NGCtVncVgVA0QiZAqwR88wAlJ8aaTL9S9UAKp/SU8A1fKEVgPPTWA3GvQsB2BeHUQA2MrcaQPXrodorfTcA/DeBArIN1jsAVPxDp7UMrzsBFHTiwAyl7lQAXHmAtRXfVwzA8qREAVrOPgQAf6Rrq7BNAPB5FAVspb43ADg/DNFSPOA2gPMdOHBD+mfNAMrHSRoq5nsA9lkyBXLDlzsBnGqtnXioGcCBVArsNjoIQFkTopnCtwOoniYFeKQhZQBuDWGtdGcJgMNpFOg15ToB7EnTSLp3ADhnSwEfangAgGO2rI0yTgA404wCv9LYKgDn22ijEVYAy3QBIIraDEB5R6+F9OsAVPSgQDA/UAzgSgctlHEawL64gBAZlyqAssyogfpWAVghB4ao3SUA1zpqH2k+ANtIChDr31QAJVeveUJ3AbjcMlBEHQsBFDTSPInHAfwWGTAyrgFgn8Jap+0NAB/IASN64CaA32I1BUuyTiczezTIBmAKBY7DdwCo6KkBJENko44PDn18+qwF7y5btXrJW3NemDSu792tkkJ1zJMAmHsGkPhRK4BlujqNjSldxsz/Ou9cWZVdgcdOW8WNYz9+PH3AKgA3cgJIlHYcwOmGdRYbUh6a/WV+qQM+tVoAnM/UCKyTuR6gWw3ANpzrJA5v+/i6Y5UK1Hk4wWdSRPYDQ8d6dXi3NtGyZ9I9Y304pm/7KMkHunbPffzRE8nsA9bFd+o5aqx3R6YQNR8rPiCrQxffvufIsd4dlUEkNRn/zJhMri00yAJgrb4OMracurPQiRo6bbdvXL184ezZi5evlVQ5FI/+iPSRsd1LP18z251etVfdyHvzrhBP5A1OX9qKf52Ryt6Sx11UAPsPLbzG0X2WHyizOJxedfyQRPSUU9xiUgFHdVtyoMTicHo3L52461cfzlz4aSeuLanHARxNrGukuAEbLzngodN87e8dy2aOH3hvq6ZZDTMyGmc179RrxD9f2/RjfpnNxa4Qn8itPrqqwLfF6+7Qe7ARPrbn9dZ7h++4CFH5OsZLYYO/r4D3i7ox0VSI23zHpt7f3ob3b/ZnCl8z4ot3145ZHlJb9KsB3Lq7btE3n/OXGe6tl35678mHshsYZaYaS/rQ1I79Z6w/WObYbPABRz5ToMD3115twGoBbkw3eiX+v3BtnS55g5t9XA4f2ucYSD3cZEUZfOjMNRG1XNdox4ItDf/TuLbwqGpAeZ7rEH37d8864Vq5uff9wc3DZfItG+K7THhM9kHCcgtUafuyMasGZaMkL+ier3aD0224ZtJdexX48pckUg93zHPCl0ebEFHLT5tuXvxW7LrM2kLNLwPYYqoz9K3fuazApVL0x8t3N5BIpUzeb7DKDre20sLrNS+2uIHyXWPPyq9780alK5xuWzPufAkeboqsEd91Am4Vc9H1mp/pw+rhTgfgVjEXXa/5hdESEYWtfGxB9nvTlppqTcQPAPLT6gip8euXFbi07H+1U5REfjBscTVcmnfPGdIlJzsn221Odk52dnZ2u/6zf6pwAWVTtEdvZos52dk52W5zslt1n3fGhbLKWKPor+CpZapcA265H65vfD65R5ts1znZ2TnZOdnZ2dlN9KSepnvgunjr1B5tcrJd52Rn52TnZGdnNzUSEXHO+twnlmxsybWG3wJQcV/dEDPxmAMub24dliiRX5SerISo7B0VJ5GXpaiBv9gFWJ/VefIceVfuvE/A1TY1kSdXCcq3pwWcbVeDqM8UF5Uf3xHC5ENVhK5VXFg23RPG5ENOGjy9fwJT7R1iAxyT6gLDgzuscHnlowfDyV82PgbRtqYRkw856c1KAZe7evKsl4jvuSI4J7Jn3PEcxJMtx1cKWBfuEU+ognjtyTDyrRp40G2I16ZFkn/vVAZgmeT3OHFREVxe/7CDnvymPNsp2JdFk49D51sFrDF68Jy3SL9CwBqdZzGbIVZNksLWKYL5ScmTuN0QC4fpqNbF/ACxbIyO/HzmOQDfh/s73Z277BBvfXangfxo6iGIPyeRz6M/U4SrOSqgxx3CdqNH0hNWQfkiiqjteQH5OeyOB5oF6zM6qnXct1JwvGkkfx/5K4CTyX4u4plLEKt39QwjvzrUKtzqzb7jdhcF+z9ZBaPtwg6TR63zIRa0ZSL5aaugbIpwp18H8fd4qn26FRD3ppHfl9YCuNbCr3H6cgvEC8/FMflV6QOIO8JJhbplAtbrfSe/B3GdzpOIDYpgmyYTETXYIaByLLtJOSHYJ7EfiD8gOJ7Ryb6U2C/QQgDm7v5M6vKDEwAsX3WUyc9G/CQ4n2I10AibcCDe3bPe4uyTgjKDPZAnmCHujCeR774q4HAzN51LhcvNyQ+0L3Hx40ZfbhjiJyY4AccoPyb3OQ3x8swo8rspp4Rbd5MqW1wTLmW5e85L3HCbIhR3IQ+b5UO8eje7IN1rDkFZFeZqaLXwW6Q/6GYRfHw6h/xjDwuASf7LMO4KACh77pXJ/2ZeEK41V0faGeF6C4+i0tJS09JS09ympqW1GJ/nhPhVmAehK51C9cs6cpuxV0D5GMnFk4qwSecPBlX7zvwPyU/cVQFglt8yTSwBAMvGpkx1XGqBF1p9cyI/P/9EvqdXbXBZ+DC7k0bchvhLIrnnQWUCjmR59EndoGyIJD/ZvhTAO/7KOPMWANyaHUV+OeW0UNZVHc2uCpebeCR1+s0J71Y9pyf3zY5BLOnJHpDxfafgXBoiDLcLP0X4gx4WnxVks7/ILgSw3E8ZZ9wGgKLJRvLPUX8KjsdYFQOswtFEj4gbfurwiuX9CHIfslIRHG8byeNGhwTcGsxE1LVMON/IH3S+KTjz93l972SZ/GXWRf+ln3wLAM4O0ZOflpcL+NSkBvkdiJ8bPCNKeK+iZsqZyRHkngffgvhHGnnO480CDjQlovQCwTaG/UDyUcH+fIzXo/XkNxueAbBG8kfyuBIAON9TJr89tlooulsNWfmCcwbXhEJnltTAevqDNjJ5mLkPYmn/bpMmTZo8yeXEiZMmP3/OhXOpkcj4uYAdEX7AsF7Ab/Hk/1NPAFgn+yGp71UAONtXJv+ddUbA55G+C3nfKRS1pxqRfvwlN8dXLH3rmSENdeSpKdcpOD8yjbwF75b0ZuLxNqF8lFT7eIRVsM3U+b/MAgDbUtjvcNsTAHC+h0x+XPe6IlheCfGVfmoFxE9DvEDy/fsUF6VzYiUmz3nQTYiHm1LIB4p3sCeTKHm/gLP3ca2jxL8EXO0l+b2siwBs+2eksp9J2gkAJSNl8uutLgioeCXKNyETiiGWPkzeIM7+wSnAuiq5Jkm/QawcIxG1yPeS8x0TSc/bBRx/SK51/FiVgIJ+en/X8jpE+55xMexPwj90ALj1lIH8u+5fNgGWTfeY2GuGjstvQ3S8ZfIOccOPrQIcOztIHhlftwvOFWFEJI2r8A7KBjIlfe8Cl/+VKdcyivraBW7MayT7t8xfrAJQtaOnyX/IE80ArHON5O+jNzoFoPjzMZ0ykr2Y1mHo6qtw/V0SeYkoal6FAJx4ROcB9y6FeKo5iWEflZZ5WFpWVlZWLSAvhbjrGRdwHHuzR05KsncbSG52NUz2YaK+3QkXcOS/2zsnNdm78bI/kJLG/1IlAKUfNGY/we3PAVC+iCH/33Cn4gKoLjt93IsnS6xwrRxsz96j0OlFLnBtQqi7lN8gWp6SXFCD9h07dOjQUewgdsp1CPZ5epKGFLoAFPO1E8e9euxZ2U35ieM+XBUl9T3vAkDVtfzjXj32qsEfEHGD4T9UCXDu72f0D7FbAeDvFlQHcqNvHK587fypnUQ+IH2/ky5QsTiRXegXOFx8GkVezzgooKg3k27QGVfeP9ac3Pi08GEmudsJN14/3pL8JccM+8kGsfS9VPYD8nQrgKJeXBcQJ75Tqgbzmkwmn5B0xx5FgOOzJkxEfH8hxLPt2HvSY1UC/kghkrruqvZJ+RiJaIrPHG/riUjquMPmk8pHJb9BxHHPnFUAwPFDB6n2tTkDwP6agepIU++fKnxVlTcugtx6jbjFDocA5+57ZKKE7yDapsvkw8ivFMExW0/ECbNOV3vPuSqMiPpU+uqvTBK5wbRjNu8pG8LJr8pt1ldCzO9vqG3GFQDwSyLVmRzbc8Xx24q3FPOZT4bFM/mOKHmJVQDOjzHqX612sbMB+ZI7nhdw/UEmIrnxP7dftnrpQGMioogPzL4p7sUuiKSMx7desnipoA352/Dx+QoAFD0dUru4WwmA4h5cdxCRPuX+x55dsMibs5/skWlk8lQauWjRokWv3+sNivzHItcvNIp+epG4oAP7hOTBi1wOkknksGYDJr28yJvdWaCIfnMX+XKcgTzk0KZ9J85a5M0Bkt8hqdWXNgComBdRq6K2AXDmGqnOZcmrzFRjySV7hVhyyyy5ZvIxSy6ZXYjMkjeZ3LLkS6Yas+RNJj/MsQvLAMCSG1uLeLgZwLEsCqIaR54DgOrF0bUn9icA1dOkYArJD+cDgPX9iNrCI6oAHEyl4KrUOQ8ALG+G1ZLQLwFUz5CCLMSt/wSAyqf0tePOYgAH0yjoyu32AcCNgVJt0OUCcDwrBV+IOxwCgDOduRZkngRwtikFY/mBCwDwXYL6eLwNwFJdUIakcWUAqhcYVWf6CoC5HwVpjXNsAEr7s9qaXgRwKClYQ7FfKgD+SlXbYAugvCsHbahtAQDHXJ26pA8BVHan4K000QLgYntWVYO9AI4kBXEo+isAyqoQVbUvArBWH8zhTpcAlHVX1aMOwDmRgrq6+U4AX4aqSHoHQFnXukOOT67fR/knan4GQOl9Kgr9EUB+ct0Rv+1Y/X6un5JfcwJYolNP0nEA20Pqjpi31tXvn/RT1PI8gDNN1NOhFEAu1x2sq+fL/kr3HgDHdFZNTyuA5ynoe2cJgJ8jVTPWDjjHB3/CdgAovUM1rypAZffgD890AsocVom0AkBxu+APdbgBYFe4SvSfA7jWPAgU+ROAK81UYtoJ4EJmEIgXKkBVT5WE/gLgfEYQiHpZAMxRSdhvAM6lB4OyzgP43BBki/gdwOF4dYT8COB8RjBItxLA5Sx1GLcBuJwVDKLnAJTfpw7dBgCF2UGhMQ7APkId/D6Am12DQt3MAKaog2Y6AduQoFCHEgBzVDK4GlAmazI5+Z7xL86a1r9TvOxGCouIiIgwsjc4onWPKf96cWKv1hHsiTEiIiIiTPJACouIiIgwCeFxDeJcNogMM7BGan4NwDsqua8SwHwNJrV693C5HXBaS/cvvcvgInp9Xl5e3kQvSFmzfi60OAGnpfCXWU0kNzw+Ly8vb1OcB9Fr8/Ly8l4Unj544MCBgwcOHNyf98vXb/ROkLRQo0sAlqmk2SUAa2TNpRtZoMDDwtlRQvwRAFgo1cg05rgDHjpOjA9xMxsATiZ7ELcfAJYLb8FjpWrP5AasfTIvAliukpi9AHbHaC3dmCJ4bl0c5YPwV26jhuXzItQGwLq9LWuehsJHKjFsAnClmcbih64AgOPQO3M3nlMAwDJD9prhpSoAcJxcP3fu+nw7AFhm69XisDscigvgSCfWOk2vAnhPJfwsAGt/jRWzEwAc6zMkNmR/6gCAo6leu+8GANxc2EjPrM+cXw4AhfexOm5MGT5i9MufXVAE7ErQOm2LAcxTCfU0A5gnaavBVcLudBJTfhasg70V+hkAVL9iJJem12wA8Hm4Os6lExEbspdWCdXPSRrnwUoA09WScQbAzxGaSr8WAGxj2QU/5gCAtyQv3Vsm/BpPbhv8KNy8X0VEFL6oGgCOZ2icEXbAMVotpq8BFLbVVGknhYtNyfU9FcI2k3ekeQBg/we74yfsALBQUhUl/CFUj2JtMw2AuZtaaIYDcExjLfVAubA91E3c45OnTJrcX+ed8J+E663Iw5ZXhN8j1cWT7QCwXK9ppA8BXG+hmk6lAHaGa6mJivAuu/HQK03OC7ujPInKEy43Vxe1Kxb+jNA0YT8COJGkmga7ARR10lD8EgAoT5Eq7rgtbDN6YtwiVNylsoTDwvFETZN+CsC2ENXwHAVQXmHtJH8gWPup46EqYYPOE/nfgrWXysJ+Fc5naJoHKwG8waqhjjcA7I7XTrrlQtWDaloie8KvC7ZHVBbyg3AxU8vwvxTAOpDUG/o1gKqhrJ0+cvGQmlbpPHq7nhK6FcCN1iriIVUAdkZpJulNoXqoOh4wC5/pPdGtEizd3J1O8yD+sPci/hDOpmmZllcA/BmjIorfDaD8EdZK/JygzFRH55vCTpMnId8Jt7q4O5vpQfJJ72WcFg7HaZkJDgBvs5r4aQeAb6O1Eo22A8BHkhvJYDSajHr2TtoJ4XCiJ/EHhdMZRDxLuJ7jQfpZ791bLnwfqmGMmwBUdCNVNzwBoLI/a6UOxcJvUW6y1n+zecvmeUbvmLYIN+/0pEup8N8QIpoqVN7nQfNrwvvekOYrwiJJw7S6AmBvnLqkWQ4APzTQSnF7hRtt3TxUBQBfeImnOQEo8yR30ktOAM6nmYgG2gDYH2V3fasAOCd5gbNPA0BFT9Ku0mwnoMyV1EVpfwOwPS1rJOlNwTFHdiH/SxFeYu9Qy/MAcCrHDbfMB4BLOURETS8CwBehbozLAKCkc804a4ci/BCjYdIPA7jenlQuPW4BcLatRqK7iwHgXFcmIu5yGgBuPUBe0r3pBKBsSmSBk79SADjf1QvGNcLtsbILqXuRsCOiBhySPjpPAYDywaxd+KlqABtNaqOYHQCUTyI0kmmpEwD+7p3UIGvMEYg/Rrs7sGK5+9FE1OQoADh29WscF9e473d2ADiURS7vLQKAay+2SopNzJ54CgAqBrMH5RuXL1+947QVoj03lLRr8t8AqoaQ6rl7CYCqJyRtRA3/EHD72P6LVojXe7A7j5cQkdT7EkTzhQP7L5ghXunHrgyzqgDAXnh835Hr1QBQnRtGHnhuW5tA2lWaZgPwc6z6yPi2A0BBR9ZG3HG/4GHhk3ryGsn9Tyrw/NQAHbmNmH8bnlctbUBeujonljVM1nEAVaO5FlDGnwDwbao2Im6z4bYHlbt66skHJLVdVejJjVXtJPIwZPivFg9s+yZEkDeUWwfe6qInDWvKdQLYHk21kbsVAXAsCdFGRGE9Vx+4fvNm6fm//v1IDJMYsWBdTce7IDJ2mf9zQanZXHr6l1e7GMlzjhu85u9L5eaKqwc3jElmcjtyndu1S16dcG+CRFqW+5UBKH2YawUZFlUDKP+nXiMR6+NyOnXq0DhKx+SaZV1NZTdEUnhGh3vv7ZAeLlHNWR/b9M777moZZ2DyUNa5lSVm0rhpfwFQVpiolsZ9qQC4MVzWSAFD03sOAKdbUa1tvg8ALvTgYIo87jaAqklS7eH7LwLA0Ts4eMIPnAegrI+kWiyPKQWAY/dIwRJuuhcAjjSjWm2YWQ4Ax+/mIEnqNgVA6RCpdlHIK2YAOPywHAzhpI0OAOZZRqrt4fPMAHB5jD4IkrjeAcCeG061P3y+GQBKpoQGOzhpnR2AsjmB/GH4i7cBoGJ5Jgc1uMkWOwDntsbsF8g0tRgAnL90lYIYUodfFADKzoZMflI/4hzEsxOighaGgScAwPlDUya/Kd+dpwBA1aet5aAEN5hTAgD2zzOZ/Cg3+dQGAMqpydFBCLnjNzYAsK1OYPKvsbOvQbRu62EKMnDc9LMQy+bGkN/VPfibA2LZ6g66YILhoe9sEAtGGMgPc3puiQDl8putDMECfavFRRCrv+8qkX82PrSrGqJyadkdIcEAXc7bFxWIN15OYPLXnPBsgRMuizb2iuHAHhs75V5wQqz+qbue/LncYnGhIgAVv81oEcYBO13igA2FCkTlwosJTH7e2HlpoQvAeem/U1qFcgBOiu+We6gKrgvfb62jOtDQdcUVRQDguLbj+XsS9RxAk0IaD/jg73K4LVl/t57qSEO7tw5bXQBQbh/eMLV3dqyBA11siEi/d8S8b89Z4NZ5YcW9IVSHSqljdxQrLkTFcvXvL+f9o0/7RimxESE6nSzrZJ3sdmd7e2e73p9MppPx6WRkOmnmiy4rGgGQRiNAo5EAaDQCII1mx32SUlSZmq7KjEx1ZjVVZXbrNm3atmvbpk3bdu3adr7/kXHTXv/yz9MVdnhoOTCrpZ7qWA7r8uqe24or14ql5OKp/b9s2/TJxo2fbPxko9v1MKyH+tRTcvfkJbmn5H6WvKTk7snd/fymy0NESIqSpRxFUhRJUd5/frucOKXKgnOqPH9RnZevqvJ6kVhcXFRUXFxcVmF1oob2SxuGJklUF0tx9z//3ZVqDwLmivnE6pEtjUx1Nodlj/kor7A6cKaUn93xWrdUPVNdL8W0GvbKlj1nSmyBLKW64saZv3ctnnR/ZiiTVmRTdHqHAf98eek3v+49cvKU9/9/u3xGlqJkSVEkRclSlKy3x4ce9xfn7cX5+MX5yK7vNn+uyk/WqnL1h4sXL16cm7vYZW7uYte5i13n5i4W31i0YOHCBYsWLFy04PWFCxcuWLRwwaIFCxfMXzR/4cL5i+YvWLhg0YKFr87y+Jkpjw++v3VabKhMmlQyhkXHJ6d4/+S4y4ERoNFIADQaAZBGI0CjkVjNu8ymfYwGVep16mSRiF0SsWti10Tskv7n///5//+aBgBWUDggWgsAADBiAJ0BKvQBGQE+bTSWSKQiv6Eicepz8A2JZ27bbf1NS1STyA1gPQxkA/hP9l1BCQP6JnHW6/ij9AP4BigGtpkA/QD+ZxOllxq/jHI+0/kJ+WHyx15+4fiD8jOIdMl12fqfun99/+d/oH67/IDzAP0o/0X23dwfzC/rP+23vVf6L/R+wT+wftJ7gH8q/ov/u7AD0AP5f/jvTC/7/+P+DT9s/3L+Bj9ff+77AHoAf+HrH+uv9f/C79UPuXogfRcVDZdWx+4SimqxmgeNPUC6L/oYfsUP4Y0Ei/aekG1eaCRftPSDavNBIv2nobTlRWjMnR/a7PlHMSwpWXa80Ei/aekG1eaCP7XbY9XYRprjBRaLQ2iZu58leaCRftPSDavNA7kwp8yRItVk7YQOVV8JNbiRIv2npBtXmgkFPsG1eZ8bBmND4PPRiaekG1eaCRfr4Unn7ell20YQLGgkW3WP1IkOizGJXc7BwLYSGNBIv2ATwLFc9H+e5R0uX7T0gDgPtR2RmMcQvEZgnafOPxQkG1eYZfyxgyekC1ebV5oJF+0uP79fTHsPyh02vNqtTtUHF0kREeVMOk0Xb1VXUZOyuh2sUZz9v2mRAVjSflvTdF99WZKBaRoHmrAaThJnE/iImjsYqpkcUudgiy6Bj9hp188xkWK4iuSmUoZ8KMWu/H/d76kIgWI2OX+6aw15hmA/6zFstryXRv1tXaJavI6lynvR7Z53SJAJyT68vpFAfFLSwyDM5USm/XKEuEhImkdHYIsEB4ESoEyC4mfRm41d7xORw+STMfevH3UjaOy5/kyZ8EEfKLCyCWC7BtXmgkX1cWnHqbkwFn1moBX8Z9ZOJABCxoJF9/FOhTODqwZ0d0ns+oci/aeiTh8BsG30G7Z03aNtOouF5tXmT1eX1bTY1mDkO2sl67lQfKjkX7Tvdvg38G0dsmm5olJGVazd4Vn5/PJwjfGAkEg5sThuzD/5mAH7bYnL4U6cVRbShXkY0TJ0B3WCPwYn8pcLCrvLSpqyet8fhwubjWmL9p6QbV5oJF+09INq80Ei/XQAAP7MDwAACAsN5y5EGQ/WiYHSPXOUtbW+l9DHWJ35JHiu/YXsshXaujiplNfKod+QfD1ulRz8LDr1Yjf//0bz9pQ78Wjoa0wC4gk6LI6Xo76WBIjAnxy7BzRXZWXnv//0HnCP6dP1bJzLHDdcWa2XDCRnQ4Q5IIAWENDo54iq+cacrfXW/t883u+KN0FHggKPo7N+8463+l/++qP/3zY6U4LDsR2OnQz2AGTo3uek7S3+BP/xyMMHAN2o4vPuHKi9qsFAABWSzZmpMa1EoNxpzSovaqo3hQX+NvW0mwv9ybFkUPn8CoF2EeYsW9/E8hNW4U8ZyYnNLTF/CXa6MqrsiSmPPxjT0v9ErFBdH5eGkMgrJN2on3nWD1bFJlH9tEkTLpW9FQ8iO3UbfwFI3aERknZE4QLVYUExJvKtp7fBoPbmEnjpoBofXusSD6GwzMiXb2W4XN1IkAblS663T6e+PGe/C5akpu6PDZtvtccLmXge5jtkRARcjCimThwvfHJFwLbCkVCKNH7WRUn6mNPfbt2gh1Q+IZd5icIuC+NsZUZcDynogSxdYzl8FO0OctlY9/GIn/9UU/fqDca53QS2eK/crJkvT27BpAhSiIh17MHi+XkMXuODv8NLTZl+dWmd8qwZJgURyyEiu/qB/fsQ+faSe8jUksA5JATuEs4ei/uYDb7AjgzkfZIFAQR+tsgnoycH/cmcStnNEihDSDNNlk//ibudP6dUMYp8gE8oHdTg6u76zyVVhfhDWW7XQRqVO9t+TkwjnO+N0+WM7CYeu/cEw0hTVojqPLQ9YWNQ1RQ+Vxw5EyRYz397F6I7Wh7jB2qMlYVzTpP5XHaYOTPe8RoDWvX4S9HMGAQO62jNA3SHInqzeBiMFRXwGSySEb/94Azf8Z2LEkTHIbs5K8TaXgAd2AtVtH6vgXLPG4/EYArhQZ98/kCBLYD7s0MaoV1//bMETX4w3j0z3aFMXZEV2oufwv/TVgQq6P/TVfz5arH9ONtqDQCwpvClpvO07I2pd9lYMPAbWxfN6+mcyYQUnBBi1P0HOh0Lwv6mNU6EE3Gg9py8BB1AANP3Ai4+JAlQH9B5vSPWV/CWXO8ntbLnMjB04vCDnqQ3Ohew9mdAY086rPnDnXV0zXHjU0V3q2S5YgkL7SLO/A6WhILozP5fKOfGYLKzCD8tpyOZ2JOTRUkVWa49ybYJOzadTF1ZY/4QiinDCizAVH1tai1r3PtJ9ncs20b9bI1Cs447uTMOGy/J148tlsmfyg3guA6An3tJbwAnJgHi8FDbzF3i28bX+rdJAM4GKXeqMOjAKpfwvJzM9aUJ7vWx+NMMm6o+I3+km5FGnfs+B9Cvnq+8CYP7hM+gPiE3KYorNt4wK3G6djhn7c+DL+1+pQRj3nQyrs2CqfKIXX5gnagcDqUOx+hWb1NHb3qpJLvnIcwzwJhh4G9dErz9SkbEwKVJbpNRcqIyhppySPI8mc7WEonqjnxycuSG5OWmbbxUUCk75LPCcjdmtkW0PefQ/+Fbqk1bBnRCA+w81UH58cNAff5DiSbdo0dEECy7zUNDnBt2UXhriFu4w9ZLIGipW5RJPVtWWBVOb9b/WJ+4V3TCpXqOsTWb1hDgWWXLTjwpcNpIEmNl+ye7Glt/h+8qDPEqIHz/wc9eRPsbpJ1b57DCa2C2H6j8FseN2a0fE4HdJGqR/3D6lnYuyzp2mZ348XFu81E9pxZQP8RIl+BZLxcbQukUH7bA4oudaDCip+zdeIqTDTzQTJ19Q8lqtHvwwvbUrZDuZXAkVRZGH1jaY0zwRVJxMJV4fNB8nI8v4X8Q9xUSG3kiLNfIPW1hEP5O6uM5YN6/ErSVCv6eblt2Mi8OYOH7TTaW5dw8Kh5TD+HoO7I3iAkqoYpmCU8qlI/wWx43adMvib3mctyaileNpXuF5D9y1jVhKH63gcc3dlMsZr+f2fg3rS8h5qbZxpMzwaR3DYKBz5/5JsWLksNyHqlGiu9IMZv5uaGV1+JpjACLRGRzUmJzUAjo1CkE3bpTWGbTygWgzZeiVXmGDDdFgAyPhoWc8Df5Y3nHrdmvQT8ccF/oWIAAAAAAeEKphlvVIePYMbi2ae3Pso1JrhpEFDP//0gAEyBau4+Ll5Z7DeCVsEGU6jU20Qm+ZtSIhmAEXG5F0AKixb/TASAirmEz0vFTuToS4d1LxV1DAHSQkjyxXR+iMdLfFV5CWQsojyIcN2DpC6IMF6/WS9MqipapAMBPXCYlMlChDwAVGtpL2V6y++lpywkkfqnI6iTFJ6Yr8B/hnhsIxR37Nb59yd7ovJiw45dZozOH0Dte567q1nigorrckHAUhKxD6r9K//L/AADBunmLgA1GprX31d+Ie6Vzah7FvPzidvucMxAs5HT3UUqkkjf74CNdxOJwqGN+T33QXCGs1+eKZoElHJM3k4ngKWip1At/g99SuZNoEAX5V0djVJDj+N4UbHzcNHuW4Ifoh2i6OBzp1D0ev7V82Ql7jMEmw4ZKvvh5b2gz1h5mROvVVdgkV743nisxmaOAnMVmmxTmlx1z1gk2aoBKophxJOdrvhB1RscPNs+EjAQ4AHptwfMKnb8WXm6WBrSrUwqrvqVx49PQgg7F6ZCRHOaQTPMAAWkmJz+nIcEjWYfMgZgexi9nWKycXQo5gerjf3m6eHZ3MFrN8cwVB++vTEUdWfGEmNKrB99q7J4hlU9ZwTQnyWXHWvd0vm59KvWgZjnnrnqwjp2xUhljwqJ4BGRnDPgE9N+DbVlwzh33ulp/0BypcqTtaF7+a6mX05WyJySjEAAAAAAARVhJRroAAABFeGlmAABJSSoACAAAAAYAEgEDAAEAAAABAAAAGgEFAAEAAABWAAAAGwEFAAEAAABeAAAAKAEDAAEAAAACAAAAEwIDAAEAAAABAAAAaYcEAAEAAABmAAAAAAAAAEgAAAABAAAASAAAAAEAAAAGAACQBwAEAAAAMDIxMAGRBwAEAAAAAQIDAACgBwAEAAAAMDEwMAGgAwABAAAA//8AAAKgBAABAAAA9AEAAAOgBAABAAAAGQEAAAAAAAA=;" parent="1" vertex="1">
          <mxGeometry x="1450.6500000000003" y="350" width="142.35" height="80" as="geometry" />
        </mxCell>
        <mxCell id="ZVIy68AMysFeJH6c3iR_-22" value="" style="shape=image;verticalLabelPosition=bottom;labelBackgroundColor=default;verticalAlign=top;aspect=fixed;imageAspect=0;image=data:image/png,iVBORw0KGgoAAAANSUhEUgAABLAAAASwCAMAAADc/0P9AAAABGdBTUEAALGPC/xhBQAAACBjSFJNAAB6JgAAgIQAAPoAAACA6AAAdTAAAOpgAAA6mAAAF3CculE8AAAC31BMVEVRK9To5Pn////+/f94Wt6olepdOtdjQdjRxvSMcuLg2fdUL9Wgi+j49/1oR9rOw/Pv6/tdOde4qe15XN7h2vikkOj5+P1pSNrTyfRSLNSPd+Px7vxfPNe7re7+/v9+Yt/l3/lWMtWnlOn6+f5tTdvUy/STe+Ty7/xgPdi/se9/ZN/m4PmqmOr7+v5uTtvWzfWWf+X18/zCtfCEaeHq5fpZNNaunOv8/P5yU9za0vZTLdWZg+b18/1jQdnGufGGbOHr5vpZNdaxoOz9/f5zVdz08vze1/fIvPGIbuHc1PaUfOWxn+ydh+f39v1nRtnNwfOIbuLu6vtbN9e1pO3Kv/LXzvWKcOKeiefNwvOyoeyGa+FSLdTZ0faql+peO9f39f1fPNhsTNt2WN2AZODv7Pvm4fmbhuaVfeVVMNXk3/idiOfZ0Pamk+mrmeplQ9mwn+ujj+i0pOxULtWFauG5qe69ru+1pe3CtPBaNtbr5/pyVNzGuvGDaeDb0/bLwPLPxfNhP9iYgebd1feplupWMdXi3Ph0Vd3g2vd7Xt7c1fbi2/i6q+7j3fjt6frKvvLn4vllRNn29P3Y0PVwUNz8+/5XMtZ9YN/x7vuMc+Pw7fuQeOSijehqSdp0Vt3TyvSzouxYM9aDaODEt/BhPtjz8fyVfuXSyPRrS9r6+P7Vy/Xz8Px3Wd23qO1bN9bs6PqJb+LIvPJuT9tiQNiahObRx/RvUNt8X9+8ru6OdeOfiudwUdyBZuDBs/BcONekkOne1vd1V92hjOiXgeVsS9u5qu6LcuLJvfKolemchueTfOStm+u+sO+Qd+RmRdmXgOVxUtzo4/mCZ+DDtvBqStrf2Pe3p+2lkel7X97t6fuNdOOvnuvAs++SeuTQxvPp5PrFuPGmkumijuh3Wt2KceLXz/Wsmuu9r++bheaReeS7rO62pu2zo+zHu/GunetoRtrMwfJ5W959Yd/Asu96Xd5kQtmvqkxgAAAAAWJLR0QCZgt8ZAAAAAd0SU1FB+QFGAQQBrjkHIwAABYHSURBVHja7d37n9V1ncDxj2dIUm6iSQ6XQUBRVLwl4I6AwiSmAQpqZWOQKImVomi7IpameCO8oOBldV10TTFX3dRNs1QUy9zUzCxb090yt91s23W3/QMWNRNwRM57Ot/P+fJ9Pn//fAbm+3m/Ht8z8z1nUgIAAAAAAAAAAAAAAAAAAAAAAAAAAAAAAAAAAAAAAAAAAAAAAAAAAAAAAAAAAAAAAAAAAAAAAAAAAAAAAAAAAAAAAAAAAAAAAAAAAAAAAAAAAAAAAAAAAAAAAAAAAAAAAAAAAAAAAAAAAAAAAAAAAAAAAAAAAAAAAAAAAAAAAAAAAAAAAAAAAAAAAAAAAAAAAAAAAAAAAAAAAAAAAAAAAAAAAAAAAAAAAAAAAAAAAAAAAAAAAAAAAAAAAAAAAAAAAAAAAAAAAAAAAAAAAAAAAAAAAAAAAAAAAAAAAAAAAAAAAAAAAAAAAAAAAAAAAAAAAAAAAAAAAAAAAAAAAAAAAAAAAAAAAAAAAAAAAAAAAAAAAAAAAAAAAAAAAAAAAAAAAAAAAAAAAAAAAAAAAAAAAAAAAAAAAAAAAAAAAAAAAAAAAAAAAAAAAAAAAAAAAAAAAAAAAAAAAAAAAAAAAAAAAAAAAAAAAAAAAAAAAAAAAAAAAAAAAAAAAAAAAAAAAAAAAAAAAAAAAAAAAAAAAAAAAAAAAAAAAAAAAAAAAAAAAAAAAAAAAAAAAAAAAAAAAAAAAAAAAAAAAAAAAAAAAAAAAAAAAAAAAAAAAAAAAAAAAAAAAAAAAAAAAAAAAAAAAAAAAAAAAAAAAAAAAAAAAAAAAAAAAAAAAAAAAAAAAAAAAAAAAAAAAAAAAAAAAAAAqmOLWlRLj6b8D32g3v/Hlt3+kj1rzW+L9/rHf7C2mdvKkAvWm7buJViCJViUJFi13oIlWIJFWYLVp69gCZZgUZJg1foJlmAJFmUJVjMeBsESLMESrK5t01+wBEuwKEmwatsKlmAJFmUJVst2giVYgkVJglX7UC/BEizBoiTBqm0vWIIlWJQlWAM+LFiCJViUJFi1HVoFS7AEi5IEqzZQsARLsChLsAYNFizBEixKEqzaEMESLMGiLMFqGypYgiVYlCRYtR2HCZZgCRYlCVZtuGAJlmBRlmCN2EmwBEuwKEmwaju3CpZgCRYlCVZtpGAJlmBRlmDtsqtgCZZgUZJg1UYJlmAJFmUJVm03wRIswaIswdp9mGAJlmBRkmDV9hAswRIsyhKs0XsKlmAJFiUJVm2vVsESLMGiJMGq7S1YgiVYlCVY+/QULMESLEoSrNq+giVYgkVZglX7iGAJlmBRlmDtN0awBEuwKEmwamMFS7AEi7IEa9z+giVYgkVJglX7i3bBEizBoiTBqh0gWIIlWJQlWOMnCJZgCRYlCVZtomAJlmBRlmDVDhQswRIsyhKsgyYJlmAJFiUJVm2yYAmWYFGWYHV8VLA2rs/BBZvyXv/4Qxrz9UbU/z1p0P/8Y4ZcsN7Poe2CtVGHbe7n6uP1/3bZMJIrWLWpgiVYgkVZgjVtumAJlmBRkmDVDhcswRIsyhKs2hGCJViCRVmCNWOmYAmWYFGSYNWOFCzBEizKEqyWHoIlWIJFSYJV27qXYAmWYFGSYNV6C5ZgCRZlCVafvoIlWIJFSYJV6ydYgiVYlCVYOd4pL1iChWDFbNNfsARLsChJsGrbCpZgCRZlCVbLdoIlWIJFSYJV+1AvwRIswaIkwaptL1iCJViUJVgDPixYgiVYlCRYtR1aBUuwBIscwTrq6PqHc6BgCZZgkSNYn+jbUvdJHDRYsARLsMgQrE+mT9U/nUMES7AEiwzBOiZ9uv7pbBsqWIIlWBQfrImpM/Bj+h2HCZZgCRaFB+vYlHoHflM4XLAES7AoPFgzUhqzS/3zOWInwRIswaLoYI1rTekzgVusnVsFS7AEi4KDVRuT0qzZgWKNFCzBEiyKDlbPtWuOCQRrl88KlmAJFgUH67i1az47PlCsUYIlWIJFwcGaE4rCG3YTLMESLIoN1vFvLJp0QiBYc4cJlmAJFoUG6xNvrvpc5BZrD8ESLMGi0GCd+OaqeScFgjV6T8ESLMGiyGB9/q1lu0Vusb7QKViCJVgUGKwv/nHdxEix9hYswRIsCgzWyX9cd0rk6dF9egqWYAkWxQVr/tsLT43cYu0rWIIlWBQXrNPeXrhgSqRYpwuWYAkWhQXrjD+tnNMRCNZ+YwRLsASLooL1pXeW/mXkFmusYAmWYFFUsP7qnaVnLgwEa9xZgiVYgkVBwVq0ztqzI7dYX24XLMESLIoJ1lfWXbwoUqwDBEuwBItignXOuovPPTgQrPETBEuwBItCgrXzequ/GrnFmihYgiVYFBKsL6y3unOvSLEOFCzBEiyKCNZ56y/fc3QgWAdNEizBEiwKCNaUDdafH7nFmixYgiVYFBCsrTdYv/iCQLA6LhQswRIsGh+sizbc4OK2QLEuaRcswRIsGh6sJe/a4WuRF4VTBUuwBIuGB2vpu3aYeWkgWNOmC5ZgCRaNDtZJ795iq8gt1uGCJViCRaODtXsXe1wWKdYRgiVYgkWDg3V5F3tcsSwQrBkzBUuwBIvGBmuLrjaZGrnFOlKwBEuwaGyw9utqk84rA8Fq6SFYgiVYNDRYC7vc5arlgWJd1EuwBEuwaGSwLu16m7GRF4W9BUuwBItGBmtG19usmBsIVp++giVYgkUDg3XCe+xzdeQdOv0ES7AEiwYG65r32mhU5EXhtYIlWIJFhmDNui4QrG36C5ZgCRbFByv9deQWa1vBEizBIkOw0jmRh7G2EyzBEiwyBGv6tECxlvQSLMESLIoPVro+8qJwe8ESLMEiQ7AWnBcI1oAbBEuwBIvig5X+piNQrBtbBUuwBIvig5X+NvKicKBgCZZgkSFYK7cIBGvQYMESLMGi+GClmyK3WEMES7AEiwzBSjcHgtU2VLAES7DIEKy/uyVQrB2HCZZgGUaKD1b6euRF4XDBEizDSIZgtd4aCNaInQRLsKD4YKXbVgWKdXurYAkWFB+sNDzyonCkYAkWZAjWvCWBYH1jV8ESLCg+WOmOlkCxRgmWYEGGYKW/j7wo3E2wBAsyBOvOuwLBmjtMsAQLig9Wujtyi7WHYAkWZAhW+odAsEZ/U7AECzIE656DA8U6tlOwBAuKD1a6N/KicG/BEizIEKzOowPB2qdnVYK1+9HFuE+wEKxN8Y+jA8XatyrBKsoAwUKwNsnJkQE7XbAECzIEa/HSwIDtN0awBAuKD1b6VltgwsYKlmBBhmCl+wMTNu4swRIsyBCsLU8IjNiX2wVLsKD4YKUHIjN2gGAJFmQIVjoqMGPjJwiWYEGGYF0xOzBkEwVLsCBDsNK3I1N2oGAJFmQIVvslgSk7aJJgCRYUH6z04PLAmE0WLMGCDMFK8wNj1nGhYAkWZAjWyssDc3ZJu2AJFhQfrPSdyKBNFSzBggzBSt8NDNq06YIlWJAhWIOvCUza4YIlWJAhWGlkZNSOECzBggzBSh8MjNqMhwRLsCBDsG4YEJi1IwVLsCBDsNLDgVlr6SFYggUZgrXgkcCwXdRLsAQLig9WWt0RmLZHBUuwIEOw0pGBaevTV7AECzIE68yFgXHrJ1iCBRmClc6OzNtWgiVYkCFYaWJg3rbpL1iCBRmCde4tgYHbVrAECzIEKz0WeRhrO8ESLMgQrNa9AhO3ZJ5gCRYUH6y0ZlVg5B4WLMGCDMGqPyZrjVgjWIIFGYI174LAzN3YKliCBcUHK13cFhi6gYIlWJAhWOnxwNANGixYggUZgjXz0sDUDREswYIMwUrfC0xd21DBEizIEKz0/cDY7ThMsAQLMgTrlGWBuXtCsAQLMgQr/SDyMNZOgiVYkCFYnVcGBu/2VsESLCg+WOmq5YHJe1KwBAsyBCv9U2DyvrHrZhWsVbOLcZ1gIVjdtGJuoFijNqtgHba5nyvBYrMJVro68g6d3QRLsBCsDMFKPwwEa+4KwRIsBCtDsGZdFyjWHoIlWAhWhmClpwLBGv1NwRIsBCtDsNI5gWId2ylYgoVgZQjW09MCxXpGsAQLwcoQrHR9IFj79BQswUKwMgRrwXmBYu0rWIKFYGUIVvrRuECxThcswUKwMgQrHRMI1n5jBEuwEKwMwVr5bKBYYwVLsBCsDMFKPw4Ea9xZgiVYCFaGYKXnAsX6crtgCRaClSFYgwcFinWvYAkWgpUhWOnEQLDGTxAswUKwMgSr9b5AsRYJlmAhWBmClX6yKlCsAwVLsBCsDMFKXwwE66BJgiVYCFaGYC14PlCsyYIlWAhWhmClO1rqH/eOCwVLsBCsDMFKPw3cYj2/QLAEC8HKEKw77woU6/OCJVgIVoZgpdMDwZo2XbAEC8HKEKx0SKBYlwmWYCFYOYJ1z8GBYt0tWIKFYGUIVro3EKwZD3W913DBEiwEq5HB6jw6UKwju97rZ4IlWAhWI4OVjhtR/8y39Ohyq+0FS7AQrIYGK+0RuMW6qFdXO10vWIKFYDU2WIuXBor1aFc79RYswUKwGhus9EJb/VPfp28XG31bsAQLwWpwsNKQwC1Wvy72mSpYgoVgNTpYM38eKNa1797nc4IlWAhWo4OV/jkQrG36v2ubAwRLsBCshgcrHRUo1hnv2uWrgiVYCFbjg3XF7MDDWNttuMszgiVYCFbjg1X/L/jWWjJvg01OFCzBQrAKCFb7oYFiPbzBJiMFS7AQrAKClR5cXv/oj1iz/h4PCJZgIVhFBCu9GLjFurF1vS0+JliChWAVEqyVlweK9dR6W3xHsAQLwSokWGlo4B06gwavu8MLgiVYCFYxwUq/CNxi3b/uBnMES7AQrIKCNeua+qe/beg6G1wlWIKFYBUUrPRS4BZrx2HvrL9BsAQLwSoqWOnlQLGeeGf5BMESLASrsGDdMKBbD2NtKViChWAVFqz6P5V9rdv/9DDWCsESLASruGAteCRQrJfeXt3aJliChWAVFqw0pyPwMNast1dPEyzBQrCKC1Y6rTsPYy0ULMFCsAoM1ph/6cbDWM8LlmAhWAUGK50deRhr8VtrdxAswUKwigxW+tdAsX751tJFgiVYCFahwTr3lvDDWF8TLMFCsAoNVnos/MlYYwVLsBCsYoPVemugWAPfWPkrwRIsBKvYYKXbVgU/GWtvwRIsBKvgYKUnArdYj69dd7dgCRaCVXSw5l1QfwdaVqe0WrAEC8EqOljplZb6Q3BlaxosWIKFYBUerHRG4EXhAyktEyzBQrAKD9ZDM+ovwV1j0kWCJVgIVuHBSr8O3GI9nI4SLMFCsIoPVvp+/SnYZ9ZpgiVYCFaGYJ2yrP4WTH5YsAQLwcoQrPSDWsMJlmAhWH8ena8KlmBBSYKVrlouWIIFJQlW+jfBEiwoS7AWnyRYggUlCVa6uk2wBAtKEqz0G8ESLChLsLa8TrAEC0oSrDRQsAQLyhKs9BXBEiwoS7Ceni1YggUlCVZ6VLAEC8oSrAWXCJZgQUmClX40TrAEi7IZs7iiwUqTBUuwKIt5PXrfv/PC8W9c11suf/mMf9+/vWrBWvmsYAkWZXDnf3xqwIZXd9miX6+oVLDSjwVLsGh+a377Hn8Cedlp06sUrLSvYAkWTa7vxI38cb5xoyZUKFiDBwmWYNHMhp2/auMXefap8yoTrHSiYAkWTey459//Ml9yQ2WC1XqfYAkWTeupaZt0nb9XlWCln6wSLMGiSU3dxA+ua/tAVYKVfilYgkVTan1t0y/15NaKBGvBFMESLJrR/Hqu9e8qEqw0p0OwBIvmc359F/v8igQrvbaZBGvG0jw+Llg0wLX1Xu0nKxKsO+/aPIKVy82CxZ/fmvH1Xu1VF1YjWOkjgiVYNJdeW9d/EueurEaw0n8KlmDRVLaPHMXfVyRY9xwsWIJFE/mvAZGjOG7/agQrHSBYgkUTGRI7i/9dkWB17iVYgkXTOGV08DDOqUaw0poRgiVYNIv50cM4sSLBSp8RLMGiSbTPiB7G0YMrEqzFSwVLsGgO3fgo4HsrEqz0QptgCRZNoRtvPulXlWCl3wqWYNEUlsRPY595VQnWzJ8LlmDRBGZ159XO61UJVv1vthQswaIBLu7OcXymMsFKlwmWYJFft/7SwvzqBOuK2YIlWGR3cneO4yHVCVb6pGAJFtl16xPqdqhQsDqvFCzBIrffdOc4HlqhYKUHlwuWYJHZc905jhdUKVjp94IlWLjDKkuwVlwuWIKFn2GVJFjpf9oES7DIym8J6/C/giVYZHVYd47jixUL1qxrBEuwyOkP3TmOX69YsNJLgiVY5NS/pRvH8Y6qBSu9LFiCRU5T4qdx2YLKBWv6NMESLDI6Jn4aL0uVC1Y6VbAEi4y+FT+NT1YwWAseESzBIp/WZ6OHcdqZFQxWWt0hWIJFPsOjh/FLqYrBSr8TLMEin1nLYmex47hqBmvMFoIlWOQTfFPvD1M1g5VuEizBIuMt1qDIUZz9dFWDlW4WLMEin9Dz21NTZYN17i2CJVhk03pO/Sfx1fbqBis9I1iCRT673lXv1T7h/1KFg9V6q2AJFvm8Prq+i7384lTlYKXbVgmWYJHP3XU9DtnyQKp2sNITgiVYZDSyjk/TbHsmVT1Y8y4QLMEio8fGbfLrwZGp8sFKr7QIlmCR0fHjN+1CL7spCVZK2wqWYJHTVUs25To/clwSrLXuvFSwBIucVvz0fX+Q1TJ/Xve+xu3P1ufQpv1uHfFszEPd/sq7LiyN14q6Gj+r+5+2xMCX3+pXN96rY1/xPQKaRefArTeSqyN8g4CmcvyiAV2+5P/uH3xvgKYz6dohS9f7aVbHlNc+vdj3BWhSW77+1PBjHn/uF4+/+KutVp/p+wEAAAAAAAAAAAAAAAAAAAAAAAAAAAAAAAAAAAAAAAAAAAAAAAAAAAAAAAAAAAAAAAAAAAAAAAAAAAAAAAAAAAAAAAAAAAAAAAAAAAAAAAAAAAAAAAAAAAAAAAAAAAAAAAAAAAAAAAAAAAAAAAAAAAAAAAAAAAAAAAAAAAAAAAAAAAAAAAAAAAAAAAAAAAAAAAAAAAAAAAAAAAAAAAAAAAAAAAAAAAAAAAAAAAAAAAAAAAAAAAAAAAAAAAAAAAAAAAAAAAAAAAAAAAAAAAAAAAAAAAAAAAAAAAAAAAAAAAAAAAAAAAAAAAAAAAAAAAAAAAAAAAAAAAAAAAAAAAAAAAAAAAAAAAAAAAAAAAAAAAAAAAAAAAAAAAAAAAAAAAAAAAAAAAAAAAAAAAAAAAAAAAAAAAAAAAAAAAAAAAAAAAAAAAAAAAAAAAAAAAAAAAAAAAAAAAAAAAAAAAAAAAAAAAAAAAAAAAAAAAAAAAAAAAAAAAAAAAAAAAAAAAAAAAAAAAAAAAAAAAAAAAAAAAAAAAAAAAAAAAAAAAAAAAAAAAAAAAAAAAAAAAAAAAAAAAAAAAAAAAAAAAAAAAAAAAAAAAAAAAAAAAAAAAAAAAAAAAAAAAAAAAAAAAAAAAAAAAAAAAAAAAAAAAAAAAAAAAAAAAAAAAAAAAAAAADF+n+RDKFJOVUOOAAAACV0RVh0ZGF0ZTpjcmVhdGUAMjAyMC0wNS0yNFQwNDoxNjowNiswMDowMF3ixyMAAAAldEVYdGRhdGU6bW9kaWZ5ADIwMjAtMDUtMjRUMDQ6MTY6MDYrMDA6MDAsv3+fAAAAAElFTkSuQmCC;" parent="1" vertex="1">
          <mxGeometry x="-310" y="330.25" width="40" height="40" as="geometry" />
        </mxCell>
        <mxCell id="N6LJ-jFUnYFf_EcrKTQf-7" style="edgeStyle=orthogonalEdgeStyle;rounded=0;orthogonalLoop=1;jettySize=auto;html=1;entryX=0.5;entryY=1;entryDx=0;entryDy=0;" edge="1" parent="1" source="ZVIy68AMysFeJH6c3iR_-21" target="ZVIy68AMysFeJH6c3iR_-13">
          <mxGeometry relative="1" as="geometry">
            <Array as="points">
              <mxPoint x="905" y="730" />
              <mxPoint x="1420" y="730" />
            </Array>
          </mxGeometry>
        </mxCell>
        <mxCell id="ZVIy68AMysFeJH6c3iR_-21" value="&lt;span style=&quot;font-size: 15px;&quot;&gt;fraudwatch-devops&lt;/span&gt;&lt;div&gt;&lt;span style=&quot;font-size: 15px;&quot;&gt;&lt;br&gt;&lt;/span&gt;&lt;/div&gt;" style="image;aspect=fixed;html=1;points=[];align=center;fontSize=12;image=img/lib/azure2/app_services/App_Services.svg;" parent="1" vertex="1">
          <mxGeometry x="860" y="332.5" width="90" height="90" as="geometry" />
        </mxCell>
        <mxCell id="N6LJ-jFUnYFf_EcrKTQf-1" style="edgeStyle=orthogonalEdgeStyle;rounded=0;orthogonalLoop=1;jettySize=auto;html=1;" edge="1" parent="1" source="kuua04k1buQ0zY0s9QjJ-2" target="kuua04k1buQ0zY0s9QjJ-9">
          <mxGeometry relative="1" as="geometry" />
        </mxCell>
        <mxCell id="kuua04k1buQ0zY0s9QjJ-2" value="" style="verticalLabelPosition=bottom;html=1;verticalAlign=top;align=center;strokeColor=none;fillColor=#00BEF2;shape=mxgraph.azure.computer;pointerEvents=1;" parent="1" vertex="1">
          <mxGeometry x="-496" y="330.25" width="118" height="95" as="geometry" />
        </mxCell>
        <mxCell id="kuua04k1buQ0zY0s9QjJ-3" value="" style="dashed=0;outlineConnect=0;html=1;align=center;labelPosition=center;verticalLabelPosition=bottom;verticalAlign=top;shape=mxgraph.weblogos.github" parent="1" vertex="1">
          <mxGeometry x="-480" y="160.57" width="86" height="80" as="geometry" />
        </mxCell>
        <mxCell id="kuua04k1buQ0zY0s9QjJ-4" style="edgeStyle=orthogonalEdgeStyle;rounded=0;orthogonalLoop=1;jettySize=auto;html=1;entryX=0.5;entryY=0;entryDx=0;entryDy=0;entryPerimeter=0;" parent="1" source="kuua04k1buQ0zY0s9QjJ-3" target="kuua04k1buQ0zY0s9QjJ-2" edge="1">
          <mxGeometry relative="1" as="geometry" />
        </mxCell>
        <mxCell id="kuua04k1buQ0zY0s9QjJ-8" value="" style="html=1;verticalLabelPosition=bottom;align=center;labelBackgroundColor=#ffffff;verticalAlign=top;strokeWidth=2;strokeColor=#0080F0;shadow=0;dashed=0;shape=mxgraph.ios7.icons.cloud;" parent="1" vertex="1">
          <mxGeometry x="-170" y="90" width="120" height="60" as="geometry" />
        </mxCell>
        <mxCell id="N6LJ-jFUnYFf_EcrKTQf-3" style="edgeStyle=orthogonalEdgeStyle;rounded=0;orthogonalLoop=1;jettySize=auto;html=1;" edge="1" parent="1" source="kuua04k1buQ0zY0s9QjJ-9" target="kuua04k1buQ0zY0s9QjJ-12">
          <mxGeometry relative="1" as="geometry" />
        </mxCell>
        <mxCell id="kuua04k1buQ0zY0s9QjJ-9" value="" style="image;sketch=0;aspect=fixed;html=1;points=[];align=center;fontSize=12;image=img/lib/mscae/Azure_Pipelines.svg;" parent="1" vertex="1">
          <mxGeometry x="-15" y="338.75" width="77.5" height="77.5" as="geometry" />
        </mxCell>
        <mxCell id="kuua04k1buQ0zY0s9QjJ-11" value="" style="image;sketch=0;aspect=fixed;html=1;points=[];align=center;fontSize=12;image=img/lib/mscae/Azure_DevOps.svg;" parent="1" vertex="1">
          <mxGeometry x="-80" y="157.5" width="65" height="65" as="geometry" />
        </mxCell>
        <mxCell id="N6LJ-jFUnYFf_EcrKTQf-4" style="edgeStyle=orthogonalEdgeStyle;rounded=0;orthogonalLoop=1;jettySize=auto;html=1;" edge="1" parent="1" source="kuua04k1buQ0zY0s9QjJ-12" target="kuua04k1buQ0zY0s9QjJ-13">
          <mxGeometry relative="1" as="geometry" />
        </mxCell>
        <mxCell id="kuua04k1buQ0zY0s9QjJ-12" value="" style="image;sketch=0;aspect=fixed;html=1;points=[];align=center;fontSize=12;image=img/lib/mscae/Azure_Artifacts.svg;" parent="1" vertex="1">
          <mxGeometry x="200" y="340" width="75" height="75" as="geometry" />
        </mxCell>
        <mxCell id="kuua04k1buQ0zY0s9QjJ-13" value="" style="image;aspect=fixed;perimeter=ellipsePerimeter;html=1;align=center;shadow=0;dashed=0;fontColor=#4277BB;labelBackgroundColor=default;fontSize=12;spacingTop=3;image=img/lib/ibm/devops/continuous_deploy.svg;" parent="1" vertex="1">
          <mxGeometry x="410" y="338.75" width="78" height="78" as="geometry" />
        </mxCell>
        <mxCell id="kuua04k1buQ0zY0s9QjJ-15" value="rg-fraudwatch" style="image;aspect=fixed;html=1;points=[];align=center;fontSize=12;image=img/lib/azure2/general/Resource_Groups.svg;" parent="1" vertex="1">
          <mxGeometry x="680" y="260" width="42.5" height="40" as="geometry" />
        </mxCell>
        <mxCell id="N6LJ-jFUnYFf_EcrKTQf-2" value="" style="shape=image;html=1;verticalAlign=top;verticalLabelPosition=bottom;labelBackgroundColor=#ffffff;imageAspect=0;aspect=fixed;image=https://cdn4.iconfinder.com/data/icons/logos-brands-7/512/visual_studio-128.png" vertex="1" parent="1">
          <mxGeometry x="-250" y="330.25" width="40" height="40" as="geometry" />
        </mxCell>
        <mxCell id="N6LJ-jFUnYFf_EcrKTQf-6" value="" style="image;aspect=fixed;html=1;points=[];align=center;fontSize=12;image=img/lib/azure2/other/Azure_A.svg;" vertex="1" parent="1">
          <mxGeometry x="630" y="200" width="43.03" height="40.57" as="geometry" />
        </mxCell>
        <mxCell id="N6LJ-jFUnYFf_EcrKTQf-8" value="&lt;font style=&quot;font-size: 24px;&quot;&gt;GitHub&lt;/font&gt;" style="text;html=1;align=center;verticalAlign=middle;whiteSpace=wrap;rounded=0;" vertex="1" parent="1">
          <mxGeometry x="-463.5" y="125.5" width="53" height="32" as="geometry" />
        </mxCell>
        <mxCell id="N6LJ-jFUnYFf_EcrKTQf-9" value="&lt;font style=&quot;font-size: 24px;&quot;&gt;Cloud&lt;/font&gt;" style="text;html=1;align=center;verticalAlign=middle;whiteSpace=wrap;rounded=0;" vertex="1" parent="1">
          <mxGeometry x="-143" y="50" width="53" height="32" as="geometry" />
        </mxCell>
        <mxCell id="N6LJ-jFUnYFf_EcrKTQf-10" value="&lt;font style=&quot;font-size: 24px;&quot;&gt;Azure Devops&lt;/font&gt;" style="text;html=1;align=center;verticalAlign=middle;whiteSpace=wrap;rounded=0;" vertex="1" parent="1">
          <mxGeometry x="-15" y="140" width="155" height="32" as="geometry" />
        </mxCell>
        <mxCell id="N6LJ-jFUnYFf_EcrKTQf-11" value="&lt;font style=&quot;font-size: 24px;&quot;&gt;Azure&lt;/font&gt;" style="text;html=1;align=center;verticalAlign=middle;whiteSpace=wrap;rounded=0;" vertex="1" parent="1">
          <mxGeometry x="673.03" y="180" width="53" height="32" as="geometry" />
        </mxCell>
        <mxCell id="N6LJ-jFUnYFf_EcrKTQf-12" value="&lt;font style=&quot;font-size: 18px;&quot;&gt;git push&lt;/font&gt;" style="text;html=1;align=center;verticalAlign=middle;whiteSpace=wrap;rounded=0;" vertex="1" parent="1">
          <mxGeometry x="-300" y="375" width="80" height="30" as="geometry" />
        </mxCell>
        <mxCell id="N6LJ-jFUnYFf_EcrKTQf-13" value="&lt;font style=&quot;font-size: 18px;&quot;&gt;git clone&lt;/font&gt;" style="text;html=1;align=center;verticalAlign=middle;whiteSpace=wrap;rounded=0;" vertex="1" parent="1">
          <mxGeometry x="-434" y="243.75" width="80" height="30" as="geometry" />
        </mxCell>
        <mxCell id="N6LJ-jFUnYFf_EcrKTQf-14" value="&lt;font style=&quot;font-size: 18px;&quot;&gt;code&lt;/font&gt;" style="text;html=1;align=center;verticalAlign=middle;whiteSpace=wrap;rounded=0;" vertex="1" parent="1">
          <mxGeometry x="-480" y="425.25" width="80" height="30" as="geometry" />
        </mxCell>
        <mxCell id="N6LJ-jFUnYFf_EcrKTQf-15" value="&lt;font style=&quot;font-size: 18px;&quot;&gt;Pipeline&lt;/font&gt;" style="text;html=1;align=center;verticalAlign=middle;whiteSpace=wrap;rounded=0;" vertex="1" parent="1">
          <mxGeometry y="300" width="80" height="30" as="geometry" />
        </mxCell>
        <mxCell id="N6LJ-jFUnYFf_EcrKTQf-16" value="&lt;span style=&quot;font-size: 18px;&quot;&gt;Artifacts&lt;/span&gt;" style="text;html=1;align=center;verticalAlign=middle;whiteSpace=wrap;rounded=0;" vertex="1" parent="1">
          <mxGeometry x="197.5" y="300" width="80" height="30" as="geometry" />
        </mxCell>
        <mxCell id="N6LJ-jFUnYFf_EcrKTQf-17" value="&lt;span style=&quot;font-size: 18px;&quot;&gt;Deploy&lt;/span&gt;" style="text;html=1;align=center;verticalAlign=middle;whiteSpace=wrap;rounded=0;" vertex="1" parent="1">
          <mxGeometry x="408" y="300" width="80" height="30" as="geometry" />
        </mxCell>
        <mxCell id="N6LJ-jFUnYFf_EcrKTQf-18" value="&lt;font style=&quot;font-size: 14px;&quot;&gt;&lt;font style=&quot;&quot;&gt;CsharpFraudW&lt;/font&gt;&lt;span style=&quot;background-color: transparent; color: light-dark(rgb(0, 0, 0), rgb(255, 255, 255));&quot;&gt;atch&lt;/span&gt;&lt;/font&gt;" style="text;html=1;align=center;verticalAlign=middle;whiteSpace=wrap;rounded=0;" vertex="1" parent="1">
          <mxGeometry x="-330" y="305" width="140" height="20" as="geometry" />
        </mxCell>
        <mxCell id="N6LJ-jFUnYFf_EcrKTQf-21" value="&lt;font style=&quot;font-size: 18px;&quot;&gt;Gerar artifacts&lt;/font&gt;" style="text;html=1;align=center;verticalAlign=middle;whiteSpace=wrap;rounded=0;" vertex="1" parent="1">
          <mxGeometry x="62.5" y="381.75" width="120" height="30" as="geometry" />
        </mxCell>
        <mxCell id="N6LJ-jFUnYFf_EcrKTQf-22" value="&lt;span style=&quot;font-size: 18px;&quot;&gt;Iniciar deploy&lt;/span&gt;" style="text;html=1;align=center;verticalAlign=middle;whiteSpace=wrap;rounded=0;" vertex="1" parent="1">
          <mxGeometry x="280" y="381.75" width="120" height="30" as="geometry" />
        </mxCell>
        <mxCell id="N6LJ-jFUnYFf_EcrKTQf-25" value="" style="rounded=1;whiteSpace=wrap;html=1;" vertex="1" parent="1">
          <mxGeometry x="1290" y="-54" width="260" height="240" as="geometry" />
        </mxCell>
        <mxCell id="N6LJ-jFUnYFf_EcrKTQf-26" value="" style="html=1;verticalLabelPosition=bottom;align=center;labelBackgroundColor=#ffffff;verticalAlign=top;strokeWidth=2;strokeColor=#0080F0;shadow=0;dashed=0;shape=mxgraph.ios7.icons.user;" vertex="1" parent="1">
          <mxGeometry x="1368" y="14" width="104" height="100" as="geometry" />
        </mxCell>
        <mxCell id="N6LJ-jFUnYFf_EcrKTQf-27" value="&lt;font style=&quot;font-size: 24px;&quot;&gt;User&lt;/font&gt;" style="text;html=1;align=center;verticalAlign=middle;whiteSpace=wrap;rounded=0;" vertex="1" parent="1">
          <mxGeometry x="1393.5" y="-24.25" width="53" height="32" as="geometry" />
        </mxCell>
        <mxCell id="N6LJ-jFUnYFf_EcrKTQf-28" value="" style="edgeStyle=orthogonalEdgeStyle;rounded=0;orthogonalLoop=1;jettySize=auto;html=1;" edge="1" parent="1" source="kuua04k1buQ0zY0s9QjJ-13" target="ZVIy68AMysFeJH6c3iR_-21">
          <mxGeometry relative="1" as="geometry">
            <mxPoint x="488" y="378" as="sourcePoint" />
            <mxPoint x="700" y="371.79999999999995" as="targetPoint" />
          </mxGeometry>
        </mxCell>
        <mxCell id="N6LJ-jFUnYFf_EcrKTQf-29" style="edgeStyle=orthogonalEdgeStyle;rounded=0;orthogonalLoop=1;jettySize=auto;html=1;entryX=0.444;entryY=0.194;entryDx=0;entryDy=0;entryPerimeter=0;" edge="1" parent="1" source="N6LJ-jFUnYFf_EcrKTQf-25" target="ZVIy68AMysFeJH6c3iR_-21">
          <mxGeometry relative="1" as="geometry" />
        </mxCell>
        <mxCell id="N6LJ-jFUnYFf_EcrKTQf-30" value="&lt;span style=&quot;font-size: 18px;&quot;&gt;Release&lt;/span&gt;" style="text;html=1;align=center;verticalAlign=middle;whiteSpace=wrap;rounded=0;" vertex="1" parent="1">
          <mxGeometry x="710" y="345" width="80" height="30" as="geometry" />
        </mxCell>
      </root>
    </mxGraphModel>
  </diagram>
</mxfile>
